<svg viewBox="0 0 162 31" x="0" xml:space="preserve" xmlns="http://www.w3.org/2000/svg" y="0">
    <title>Alfaparf Milano</title>
    <path
        d="M.2 18.4h4.2L7.8 14h13.4l3.4 4.3h4.2L14.5 0 .2 18.4zm9.3-6.6l5-6.7 5 6.7h-10zM42.7 16.2h-9V.9h-3.8v17.5h12.8zM57 7.7h-9.3V3.1h10.6V.9H43.8v17.5h3.9V9.9H57zM63.4 14h13.4l3.4 4.3h4.2L70.1 0 55.8 18.4H60l3.4-4.4zm6.7-8.9l5 6.7h-10l5-6.7zM101.8 6c0-3.6-3.6-5.1-12-5.1h-4.3v17.5h3.9v-7.2h2c6.6-.1 10.4-2 10.4-5.2zM89.4 9V3h.9c3.7 0 7.9.3 7.9 2.9C98.1 8.6 94 9 90.4 9h-1zM97.5 18.4h4.2L105 14h13.4l3.4 4.3h4.2L111.7 0 97.6 18.2l-.1.2zm14.2-13.3l5 6.7h-10l5-6.7zM143.4 5.9c0-1.8-1.5-3.4-3.9-4.2-2.4-.8-5.4-.8-7.8-.8h-4.6v17.5h3.9v-7.3h1.4l8.7 7.3h4.8l-9.3-7.5c4-.4 6.8-2.4 6.8-5zM132.1 9H131V3h.9c3.4 0 7.9.3 7.9 3s-4.2 3-7.7 3zM161.7 3.1V.9h-14.4v17.5h3.9V9.9h9.2V7.7h-9.2V3.1zM38.1 25.6l-7.4-3.4h-2v8.1H31V24l7.1 3.3 7.2-3.3v6.3h2.3v-8.1h-2zM51.3 22.2h2.3v8.1h-2.3zM78.1 22.2l-8.7 7.1v-.2h-9.7v-6.9h-2.3v8.1h13.5l3.1-2.5h9.4l3.1 2.5h2.7l-10-8.1h-1.1zm-2.7 4.4l3.2-2.6 3.2 2.6h-6.4zM106.4 28.5l-14.5-6.3h-1.7v8.1h2.3v-6.2l14.4 6.2h1.8v-8.1h-2.3zM122.5 22.1c-6.1 0-10.8 1.8-10.8 4.1 0 2.4 4.6 4.1 10.8 4.1 6.2 0 10.8-1.8 10.8-4.1s-4.6-4.1-10.8-4.1zm0 7.1c-5.2 0-8.5-1.5-8.5-2.9s3.2-2.9 8.5-2.9c5.2 0 8.4 1.5 8.4 2.9s-3.2 2.9-8.4 2.9z"
        fill="#010202"></path>
</svg>