<svg width="107" height="60" viewBox="0 0 107 60" fill="none" xmlns="http://www.w3.org/2000/svg">
    <path
        d="M55.4771 58.1274C55.3643 57.9727 55.1971 57.8849 55.0132 57.8849C54.917 57.8849 54.8167 57.91 54.7247 57.9601L54.754 58.0521C54.7791 58.0479 54.8 58.0479 54.8209 58.0479C54.9756 58.0479 55.1219 58.1274 55.1804 58.2402C55.2222 58.3322 55.2055 58.4325 55.1344 58.5245C55.0466 58.6373 54.9212 58.6916 54.7624 58.6916C54.6035 58.6916 54.4071 58.629 54.2441 58.5245C53.6003 58.1232 53.3788 56.6643 53.3077 56.2798C53.2241 56.6643 52.9733 58.119 52.3589 58.5203C52.1959 58.6248 52.0036 58.6916 51.8364 58.6916C51.6692 58.6916 51.5521 58.6331 51.4685 58.5245C51.3933 58.4283 51.3766 58.3322 51.4226 58.2402C51.4769 58.1274 51.6232 58.0479 51.7778 58.0479C51.8029 58.0479 51.8238 58.0479 51.8447 58.0521L51.874 57.9601C51.7778 57.91 51.6817 57.8849 51.5856 57.8849C51.4058 57.8849 51.2344 57.9727 51.1216 58.1274C50.9962 58.2946 50.9627 58.5077 51.0254 58.7084C51.1425 59.0679 51.4769 59.3019 51.8823 59.3019C52.0245 59.3019 52.1666 59.2727 52.3003 59.2142C52.6389 59.0679 52.9148 58.8045 53.0987 58.4618C53.0695 58.5454 53.036 58.6206 53.011 58.6916C52.9274 58.9007 52.8605 59.0637 52.8772 59.256C52.9065 59.6196 53.2576 59.9666 53.2785 59.9791L53.3119 60L53.337 59.9749C53.337 59.9749 53.7007 59.628 53.7257 59.256C53.7383 59.0637 53.6756 58.9007 53.592 58.6916C53.5627 58.6206 53.5334 58.5412 53.5 58.4576C53.6797 58.8003 53.9556 59.0637 54.2984 59.2142C54.428 59.2727 54.5743 59.3019 54.7164 59.3019C55.1219 59.3019 55.4604 59.0679 55.5733 58.7084C55.636 58.5077 55.6025 58.2946 55.4771 58.1274Z"
        fill="#85754E"></path>
    <path
        d="M53.3327 51.4895C53.1572 51.4895 53.0276 51.3557 53.0276 51.1676C53.0276 51.0673 53.0652 50.9753 53.1028 50.8792C53.153 50.7621 53.2031 50.6409 53.2031 50.4695C53.2031 50.2354 53.0735 50.0766 52.9314 49.9094C52.7851 49.7338 52.6179 49.5374 52.6179 49.2406C52.6179 48.8351 52.9398 48.5049 53.3327 48.5049C53.7256 48.5049 54.0475 48.8351 54.0475 49.2406C54.0475 49.5374 53.8845 49.7338 53.7382 49.9094C53.596 50.0766 53.4664 50.2313 53.4664 50.4695C53.4664 50.6409 53.5166 50.7663 53.5626 50.8792C53.6002 50.9753 53.6378 51.0673 53.6378 51.1676C53.6378 51.3557 53.5125 51.4895 53.3327 51.4895Z"
        fill="#85754E"></path>
    <path
        d="M50.3693 57.1451C49.9304 57.1451 49.5082 57.0113 49.1487 56.7605C48.6053 56.3759 48.2667 55.6152 48.6471 55.0091C48.8101 54.7541 49.0777 54.6036 49.3744 54.6036C49.7339 54.6036 50.0516 54.8168 50.1645 55.1387C50.2146 55.2724 50.1979 55.4145 50.1226 55.5232C50.0516 55.6277 49.9304 55.6904 49.805 55.6904C49.6921 55.6904 49.5834 55.6403 49.4956 55.5525C49.3744 55.4313 49.3494 55.2682 49.3326 55.1512C49.3285 55.1094 49.3159 55.03 49.3034 55.0216H49.295C49.295 55.0216 49.2741 55.0216 49.2657 55.0216C49.1445 55.0467 49.04 55.1387 48.9815 55.2682C48.9021 55.448 48.9272 55.657 49.0442 55.8493C49.2449 56.1837 49.6629 56.3843 50.1645 56.3843C50.8751 56.3843 51.5606 55.9956 52.0037 55.3393C52.6641 54.3695 52.7728 53.2702 52.313 52.2377C51.7111 50.8876 50.269 49.8927 48.6387 49.7046C48.3545 49.6712 48.0703 49.6545 47.786 49.6545C45.3616 49.6545 43.142 50.8667 40.7887 52.1499C40.4626 52.3297 40.1324 52.5094 39.798 52.6892C37.0852 54.1396 34.8531 55.2264 32.3994 55.2264C32.019 55.2264 31.8309 55.2097 31.2624 55.147C30.2467 55.0383 28.9342 54.5033 28.2486 53.4708C27.6802 52.6139 27.6049 51.6316 28.0522 50.7747C28.4785 49.9554 29.2895 49.4455 30.1714 49.4455C30.3554 49.4455 30.5393 49.4664 30.7232 49.5082C31.2833 49.6461 31.7515 50.0265 31.9688 50.5239C32.1444 50.9252 32.1277 51.3516 31.9271 51.7194C31.7431 52.0622 31.4004 52.2837 31.0493 52.2837C30.9448 52.2837 30.8486 52.2628 30.7608 52.221C30.4223 52.0664 30.3512 51.7696 30.4013 51.548C30.4431 51.339 30.5769 51.1969 30.7274 51.1969C30.8444 51.2011 30.9322 51.2429 30.9782 51.3181C31.0116 51.3683 31.0367 51.4602 30.9865 51.5898C30.9615 51.6525 30.9238 51.6943 30.8779 51.7278C30.8277 51.757 30.7567 51.7696 30.7567 51.7905L30.7984 51.8406C30.7984 51.8406 30.8444 51.8866 30.9029 51.9117C30.9406 51.9284 30.974 51.9326 31.0116 51.9326C31.1663 51.9326 31.3251 51.8072 31.4213 51.6191C31.5676 51.3223 31.5216 50.9586 31.2959 50.6451C31.0409 50.2898 30.6354 50.0892 30.1798 50.0892C29.7242 50.0892 29.2309 50.3107 28.8882 50.7037C28.3907 51.2638 28.2737 52.1792 28.5956 52.9274C28.9968 53.847 30.0753 54.5618 31.2875 54.6998C31.5383 54.729 31.7891 54.7416 32.0441 54.7416C34.3682 54.7416 36.5794 53.5461 38.9202 52.2795L39.4553 51.9911C41.9089 50.6702 44.2497 49.2783 47.5979 49.1571C50.3442 49.0567 52.2001 50.641 52.8857 52.0873C53.4416 53.2618 53.3496 54.6162 52.6223 55.8075C52.1291 56.6142 51.2471 57.1409 50.3735 57.1409L50.3693 57.1451Z"
        fill="#85754E"></path>
    <path
        d="M52.4799 52.3965C51.9742 51.548 50.8205 50.9628 49.5372 50.9043C49.4453 50.9043 49.3533 50.9001 49.2613 50.9001C46.9372 50.9001 45.0437 52.2461 43.2087 53.546C41.4322 54.8042 39.7769 55.9287 37.7872 55.9287C37.5322 55.9287 37.2229 55.8869 36.9679 55.8492C35.9145 55.6862 35.0493 55.2557 34.5937 54.5493C34.0294 53.6714 33.9499 52.6641 34.3805 51.8531C34.74 51.176 35.3962 50.7538 36.0859 50.7538C36.1779 50.7538 36.2698 50.7622 36.3618 50.7747C36.947 50.8667 37.248 51.1384 37.3525 51.4435C37.4319 51.6818 37.4319 51.8908 37.273 52.1165C37.2187 52.1917 37.1059 52.3004 36.9136 52.2795C36.8091 52.267 36.5206 52.1834 36.5206 51.9284C36.6293 51.9367 36.8843 51.8573 36.9345 51.7403C37.0055 51.5773 36.9345 51.456 36.7714 51.4184C36.7338 51.4101 36.5875 51.3975 36.4705 51.4937C36.4705 51.4937 36.2489 51.6358 36.2364 51.9158C36.2239 52.2001 36.3576 52.4467 36.784 52.5554C36.8634 52.5763 37.6451 52.685 37.8917 51.7695C38.1509 50.8081 37.2814 50.1017 36.4245 50.0139C36.3284 50.0056 36.2364 50.0014 36.1444 50.0014C35.1663 50.0014 34.3011 50.5406 33.8329 51.4435C33.3146 52.4425 33.394 53.6547 34.0335 54.612C34.8068 55.7698 36.2448 56.1878 37.0306 56.3007C37.3399 56.3425 37.6409 56.3425 37.9502 56.3425C40.3872 56.3425 42.3183 54.9547 44.1784 53.6464C45.8713 52.4593 47.4681 51.3306 49.3115 51.3306C49.3951 51.3306 49.4787 51.3306 49.5665 51.339C50.8121 51.4059 51.832 51.9117 52.2918 52.6808C52.6597 53.2953 52.6597 54.056 52.2918 54.8711L52.4549 54.9464C52.8938 53.9891 52.9021 53.1072 52.4841 52.4007"
        fill="#85754E"></path>
    <path
        d="M56.3258 57.1451C56.7647 57.1451 57.1868 57.0113 57.5463 56.7605C58.0897 56.3759 58.4283 55.6152 58.0479 55.0091C57.8849 54.7541 57.6216 54.6036 57.3206 54.6036C56.9611 54.6036 56.6393 54.8168 56.5306 55.1387C56.4804 55.2724 56.4972 55.4145 56.5724 55.5232C56.6435 55.6277 56.7647 55.6904 56.8901 55.6904C57.0029 55.6904 57.1116 55.6403 57.1994 55.5525C57.3206 55.4313 57.3457 55.2682 57.3624 55.1512C57.3708 55.1094 57.3791 55.03 57.3917 55.0216H57.4042C57.4042 55.0216 57.4251 55.0216 57.4293 55.0216C57.5505 55.0467 57.655 55.1387 57.7135 55.2682C57.7888 55.448 57.7679 55.657 57.6508 55.8493C57.4502 56.1837 57.0322 56.3843 56.5306 56.3843C55.8242 56.3843 55.1387 55.9956 54.6914 55.3393C54.031 54.3695 53.9223 53.2702 54.3821 52.2377C54.984 50.8876 56.4261 49.8927 58.0563 49.7046C58.3364 49.6712 58.6248 49.6545 58.909 49.6545C61.3334 49.6545 63.553 50.8667 65.9064 52.1499C66.2324 52.3297 66.5626 52.5094 66.897 52.6892C69.6099 54.1396 71.842 55.2264 74.2915 55.2264C74.6719 55.2264 74.8558 55.2097 75.4326 55.147C76.4526 55.0383 77.7609 54.5033 78.4464 53.4708C79.0149 52.6139 79.086 51.6316 78.6387 50.7747C78.2123 49.9554 77.4014 49.4455 76.5194 49.4455C76.3355 49.4455 76.1516 49.4664 75.9718 49.5082C75.4075 49.6461 74.9436 50.0265 74.7262 50.5239C74.5506 50.9252 74.5674 51.3516 74.768 51.7194C74.9477 52.0622 75.2947 52.2837 75.6458 52.2837C75.7503 52.2837 75.8465 52.2628 75.9301 52.221C76.2686 52.0664 76.3355 51.7696 76.2895 51.548C76.2477 51.339 76.114 51.1969 75.9635 51.1969C75.8464 51.2011 75.7587 51.2429 75.7127 51.3181C75.6792 51.3683 75.6542 51.4602 75.7043 51.5898C75.7294 51.6525 75.767 51.6943 75.813 51.7278C75.8632 51.757 75.9342 51.7696 75.9342 51.7905L75.8924 51.8406C75.8924 51.8406 75.8464 51.8866 75.7837 51.9117C75.7503 51.9284 75.7127 51.9326 75.6751 51.9326C75.5246 51.9326 75.3616 51.8072 75.2696 51.6191C75.1233 51.3223 75.1693 50.9586 75.3908 50.6451C75.6458 50.2898 76.0513 50.0892 76.5069 50.0892C76.9625 50.0892 77.4516 50.3107 77.7985 50.7037C78.2959 51.2638 78.413 52.1792 78.0869 52.9274C77.6898 53.847 76.6072 54.5618 75.3992 54.6998C75.1484 54.729 74.8934 54.7416 74.6426 54.7416C72.3185 54.7416 70.1073 53.5461 67.7665 52.2795L67.2314 51.9911C64.7778 50.6702 62.4369 49.2783 59.0888 49.1571C56.3425 49.0567 54.4866 50.641 53.8011 52.0873C53.2451 53.2618 53.3413 54.6162 54.0644 55.8075C54.5576 56.6142 55.4396 57.1409 56.3174 57.1409L56.3258 57.1451Z"
        fill="#85754E"></path>
    <path
        d="M54.2148 52.3965C54.7206 51.548 55.8742 50.9628 57.1617 50.9043C57.2536 50.9043 57.3456 50.9001 57.4376 50.9001C59.7575 50.9001 61.6552 52.2461 63.4902 53.546C65.2667 54.8042 66.922 55.9287 68.9159 55.9287C69.1667 55.9287 69.4802 55.8869 69.7352 55.8492C70.7885 55.6862 71.658 55.2557 72.1094 54.5493C72.6737 53.6714 72.7532 52.6641 72.3226 51.8531C71.9631 51.176 71.311 50.7538 70.6172 50.7538C70.5252 50.7538 70.4332 50.7622 70.3454 50.7747C69.7602 50.8667 69.4593 51.1384 69.359 51.4435C69.2795 51.6818 69.2795 51.8908 69.4384 52.1165C69.4927 52.1917 69.6056 52.3004 69.7979 52.2795C69.9024 52.267 70.1908 52.1834 70.1908 51.9284C70.0821 51.9367 69.8271 51.8573 69.777 51.7403C69.7059 51.5773 69.777 51.456 69.9358 51.4184C69.9734 51.4101 70.1239 51.3975 70.2368 51.4937C70.2368 51.4937 70.4583 51.6358 70.4709 51.9158C70.4834 52.2001 70.3496 52.4467 69.9233 52.5554C69.8439 52.5763 69.0664 52.685 68.8156 51.7695C68.5564 50.8081 69.4217 50.1017 70.2828 50.0139C70.3789 50.0056 70.4709 50.0014 70.5628 50.0014C71.5409 50.0014 72.4062 50.5406 72.8744 51.4435C73.3885 52.4425 73.3174 53.6547 72.6737 54.612C71.9004 55.7698 70.4625 56.1878 69.6767 56.3007C69.3632 56.3425 69.0664 56.3425 68.757 56.3425C66.3201 56.3425 64.3889 54.9547 62.5288 53.6464C60.8359 52.4593 59.2392 51.3306 57.3958 51.3306C57.3122 51.3306 57.2286 51.3306 57.1408 51.339C55.8951 51.4059 54.8752 51.9117 54.4196 52.6808C54.0518 53.2953 54.0518 54.056 54.4196 54.8711L54.2566 54.9464C53.8135 53.9891 53.8051 53.1072 54.2231 52.4007"
        fill="#85754E"></path>
    <path
        d="M31.6385 51.5856C31.6385 51.9116 31.3752 52.175 31.0491 52.175C30.7231 52.175 30.4597 51.9116 30.4597 51.5856C30.4597 51.2595 30.7231 50.9962 31.0491 50.9962C31.3752 50.9962 31.6385 51.2595 31.6385 51.5856Z"
        fill="#85754E"></path>
    <path
        d="M37.4112 51.9409C37.4112 52.267 37.1479 52.5303 36.8218 52.5303C36.4958 52.5303 36.2324 52.267 36.2324 51.9409C36.2324 51.6149 36.5 51.3515 36.8218 51.3515C37.1437 51.3515 37.4112 51.6191 37.4112 51.9409Z"
        fill="#85754E"></path>
    <path
        d="M70.4124 51.8824C70.4124 52.2084 70.1491 52.4717 69.823 52.4717C69.497 52.4717 69.2336 52.2084 69.2336 51.8824C69.2336 51.5563 69.497 51.293 69.823 51.293C70.1491 51.293 70.4124 51.5563 70.4124 51.8824Z"
        fill="#85754E"></path>
    <path
        d="M76.2435 51.5856C76.2435 51.9116 75.9801 52.175 75.6541 52.175C75.328 52.175 75.0647 51.9116 75.0647 51.5856C75.0647 51.2595 75.3322 50.9962 75.6541 50.9962C75.9759 50.9962 76.2435 51.2595 76.2435 51.5856Z"
        fill="#85754E"></path>
    <path
        d="M26.3258 13.0166C21.9535 14.1661 14.6678 16.904 11.6665 18.0075C14.626 16.5487 23.3455 12.9455 25.4229 11.3989C25.5818 11.9465 25.9663 12.6195 26.3258 13.0166Z"
        fill="#85754E"></path>
    <path
        d="M79.855 13.0166C84.2273 14.1661 91.5089 16.904 94.5101 18.0075C91.5507 16.5487 82.8312 12.9455 80.7537 11.3989C80.5907 11.9465 80.2103 12.6195 79.8508 13.0166"
        fill="#85754E"></path>
    <path d="M18.1204 45.7336H88.2819V46.3063H18.1204V45.7336Z" fill="#85754E"></path>
    <path
        d="M18.3669 46.6031C18.6888 46.3397 18.7431 45.8716 18.4798 45.5539C18.2206 45.2236 17.7483 45.1777 17.4222 45.4368C17.1046 45.696 17.0502 46.1683 17.3136 46.4902C17.5769 46.8162 18.0451 46.8706 18.3711 46.6072"
        fill="#85754E"></path>
    <path
        d="M88.7543 46.6031C89.0762 46.3397 89.1263 45.8716 88.8672 45.5539C88.608 45.2236 88.1357 45.1777 87.8096 45.4368C87.4878 45.696 87.4334 46.1683 87.6968 46.4902C87.9601 46.8162 88.4325 46.8706 88.7543 46.6072"
        fill="#85754E"></path>
    <path
        d="M15.324 49.1193C15.0565 49.1193 14.7807 48.9814 14.5884 48.7515C14.3543 48.4714 14.2707 48.0952 14.3459 47.6856C14.463 47.0544 15.0356 46.4232 15.8549 46.0178C15.0356 45.6081 14.4588 44.9811 14.3459 44.3499C14.2707 43.9403 14.3585 43.5641 14.5884 43.284C14.7807 43.0541 15.0565 42.9162 15.324 42.9162C15.508 42.9162 15.671 42.9789 15.8006 43.0959C15.9009 43.1921 15.9594 43.3384 15.9552 43.4763C15.9469 43.5975 15.8925 43.7062 15.8006 43.7731C15.7379 43.8191 15.6543 43.8483 15.5749 43.8483C15.4913 43.8483 15.4202 43.8191 15.37 43.7689C15.3282 43.7271 15.3031 43.6686 15.3031 43.6017C15.3031 43.4554 15.4202 43.376 15.5289 43.376C15.5498 43.376 15.5665 43.376 15.5874 43.3844C15.5539 43.3593 15.4996 43.3384 15.4285 43.3384C15.3658 43.3384 15.299 43.3551 15.2279 43.3844C14.9938 43.493 14.8475 43.794 14.8726 44.0991C14.9437 44.7763 15.4411 45.42 16.2395 45.8715C16.2896 45.9007 16.344 45.9342 16.3941 45.9592L16.5112 46.0178L16.2395 46.1599C15.4411 46.6155 14.9437 47.2592 14.8726 47.9322C14.8434 48.2374 14.9938 48.5383 15.2279 48.647C15.299 48.6804 15.3658 48.6972 15.4285 48.6972C15.4954 48.6972 15.5456 48.6763 15.579 48.6512C15.5623 48.6554 15.5456 48.6554 15.5247 48.6554C15.4118 48.6554 15.2948 48.5718 15.2948 48.4296C15.2948 48.3669 15.3199 48.3042 15.3617 48.2624C15.4118 48.2123 15.4829 48.183 15.5665 48.183C15.6459 48.183 15.7253 48.2081 15.7922 48.2583C15.8842 48.3251 15.9385 48.4338 15.9469 48.555C15.9511 48.6972 15.8925 48.8393 15.7922 48.9312C15.6626 49.0525 15.4996 49.1152 15.3157 49.1152"
        fill="#85754E"></path>
    <path
        d="M16.8163 46.3104C16.9751 46.1808 17.0044 45.9467 16.8748 45.7837C16.741 45.6165 16.5069 45.5956 16.3439 45.7252C16.1851 45.8548 16.16 46.093 16.2896 46.2519C16.4192 46.4149 16.6574 46.44 16.8204 46.3104"
        fill="#85754E"></path>
    <path
        d="M16.068 46.0219C15.7545 45.7753 15.2403 45.1859 14.3584 45.2277C13.815 45.2528 13.4806 45.466 13.2005 45.6332C12.9623 45.7795 12.8452 45.9174 12.6069 46.0178C12.8452 46.1181 12.9915 46.2518 13.2298 46.394C13.5098 46.5612 13.8108 46.7869 14.3584 46.812C14.7847 46.8287 15.3323 46.6239 15.6416 46.3772L16.0638 46.0261L16.068 46.0219Z"
        fill="#85754E"></path>
    <path
        d="M90.8569 49.1194C90.6729 49.1194 90.5099 49.0567 90.3803 48.9355C90.28 48.8435 90.2215 48.7014 90.2257 48.5593C90.234 48.4381 90.2884 48.3336 90.3803 48.2625C90.4472 48.2124 90.5266 48.1873 90.6061 48.1873C90.7649 48.1873 90.8778 48.2918 90.8778 48.4339C90.8778 48.5802 90.7565 48.6596 90.652 48.6596C90.6311 48.6596 90.6144 48.6596 90.5977 48.6555C90.6311 48.6805 90.6813 48.7014 90.7482 48.7014C90.8109 48.7014 90.8778 48.6847 90.9488 48.6513C91.1871 48.5426 91.3334 48.2416 91.2999 47.9365C91.2331 47.2635 90.7357 46.6156 89.9331 46.1642L89.6614 46.022L89.7784 45.9635C89.8286 45.9384 89.8746 45.9134 89.9205 45.8841C90.7315 45.4243 91.2289 44.7806 91.2958 44.1034C91.3292 43.7983 91.1787 43.4973 90.9405 43.3886C90.8694 43.3594 90.8067 43.3426 90.744 43.3426C90.673 43.3426 90.6186 43.3636 90.5852 43.3886C90.6061 43.3845 90.6228 43.3803 90.6437 43.3803C90.7524 43.3803 90.8694 43.4597 90.8694 43.606C90.8694 43.7481 90.7565 43.8526 90.5977 43.8526C90.5183 43.8526 90.4389 43.8233 90.372 43.7774C90.28 43.7105 90.2257 43.6018 90.2173 43.4806C90.2131 43.3427 90.2717 43.1963 90.372 43.1002C90.4974 42.979 90.6646 42.9205 90.8485 42.9205C91.116 42.9205 91.3919 43.0584 91.58 43.2883C91.8141 43.5684 91.9019 43.9488 91.8266 44.3542C91.7054 44.9854 91.1369 45.6166 90.3176 46.022C91.1369 46.4275 91.7096 47.0545 91.8266 47.6899C91.9019 48.0995 91.8141 48.4757 91.58 48.7558C91.3877 48.9857 91.116 49.1236 90.8485 49.1236"
        fill="#85754E"></path>
    <path
        d="M89.3604 46.3104C89.2015 46.1808 89.1723 45.9467 89.3018 45.7837C89.4314 45.6165 89.6697 45.5956 89.8327 45.7252C89.9915 45.8548 90.0166 46.093 89.8912 46.2519C89.7575 46.4149 89.5234 46.44 89.3604 46.3104Z"
        fill="#85754E"></path>
    <path
        d="M93.5697 46.0219C93.2562 45.7753 92.7379 45.1859 91.8601 45.2277C91.3167 45.2528 90.9781 45.466 90.7022 45.6332C90.4639 45.7795 90.3469 45.9174 90.1086 46.0178C90.3469 46.1181 90.4932 46.2518 90.7315 46.394C91.0115 46.5612 91.3083 46.7869 91.8601 46.812C92.2864 46.8287 92.834 46.6239 93.1433 46.3772L93.5697 46.0261V46.0219Z"
        fill="#85754E"></path>
    <path
        d="M10.9516 20.5573C22.4509 16.3731 37.9127 12.7866 53.2116 12.7866C68.5105 12.7866 83.9682 16.3731 95.4716 20.5573C94.5603 23.6296 93.0681 27.8389 92.6459 32.5038C93.8497 27.9099 95.1204 23.7425 96.4664 20.1978C84.1688 15.6123 69.7477 11.4783 53.2158 11.4783C36.6838 11.4783 22.2628 15.6123 9.96098 20.1978C11.3111 23.7425 12.5818 27.9141 13.7815 32.5038C13.3551 27.8389 11.8671 23.6296 10.9558 20.5573M8.00056 30.3176C6.09029 29.118 3.86651 27.726 2.31155 26.6643C4.14657 25.6736 8.19702 24.1605 10.4584 23.245C8.12596 23.7425 2.68357 25.6485 0 26.9903C1.83921 28.0521 5.65556 30.3093 7.21053 31.4462C6.64622 33.1015 5.21666 37.1854 4.38483 39.359C6.21986 38.3725 15.5497 34.1298 19.0107 32.997C16.185 33.4903 7.62853 36.4205 5.71826 37.1227C6.24912 35.4256 7.47388 31.998 8.00474 30.3135M53.2367 26.0833C40.0236 26.0833 25.5483 28.9591 13.8944 33.1224C25.4438 30.0919 36.7507 27.4752 53.2158 27.4752C69.6809 27.4752 80.9878 30.0919 92.5372 33.1224C80.8833 28.9549 66.4497 26.0833 53.2367 26.0833ZM106.432 26.982C103.744 25.6402 98.3056 23.7341 95.9732 23.2367C98.2345 24.1521 102.285 25.6653 104.12 26.6559C102.565 27.7177 100.341 29.1096 98.431 30.3093C98.9619 31.9896 100.187 35.4214 100.713 37.1185C98.803 36.4163 90.2465 33.4861 87.4209 32.9928C90.8819 34.1214 100.212 38.3642 102.051 39.3548C101.219 37.1812 99.7895 33.0973 99.221 31.442C100.776 30.3051 104.592 28.0479 106.432 26.9862"
        fill="#85754E"></path>
    <path
        d="M62.9384 5.71408C61.2538 5.71408 61.3959 7.79991 60.3593 7.82499C61.0615 7.20635 61.1368 5.898 60.2464 5.45074C59.4188 5.0411 58.4699 5.6263 58.4992 6.36198C58.6497 6.21986 59.0677 6.1697 59.3059 6.33272C60.0918 6.87194 59.6361 8.03817 58.6914 8.72787C57.9181 9.29218 56.6056 9.62658 55.151 8.77803C52.8269 7.18127 53.433 4.29706 55.0632 3.73693C56.2629 3.32311 56.15 4.19673 56.2211 5.14978C56.2712 5.86456 56.8063 6.36616 57.2159 6.1697C59.1178 5.27518 57.9934 2.75881 55.7069 2.77971C54.7873 2.78807 53.9931 3.29385 53.5082 4.00863C53.805 3.13919 54.3442 2.55817 54.7622 2.05239C55.4143 1.26655 54.7915 0.263341 53.9764 0.790023C54.0182 0.476522 53.8008 0 53.2992 0C52.7976 0 52.5845 0.472342 52.6221 0.790023C51.807 0.263341 51.1842 1.26655 51.8404 2.05239C52.2584 2.55399 52.7935 3.13501 53.0861 4.00027C52.6012 3.29385 51.807 2.78807 50.8915 2.78389C48.6051 2.76717 47.4848 5.28354 49.3826 6.17388C49.8006 6.37035 50.3314 5.86874 50.3774 5.15396C50.4527 4.20092 50.3398 3.32729 51.5353 3.74111C53.1655 4.30541 53.7716 7.18544 51.4475 8.78221C50.0012 9.63075 48.6845 9.29635 47.9112 8.73205C46.9623 8.04235 46.5109 6.87613 47.2967 6.33691C47.535 6.17388 47.953 6.22404 48.1035 6.36616C48.1327 5.63048 47.1839 5.04528 46.3562 5.45492C45.4617 5.90218 45.5369 7.21053 46.2392 7.82917C45.2025 7.80409 45.3447 5.71826 43.6601 5.71826C42.4228 5.71826 41.8753 7.30667 40.5293 7.14365C42.0383 8.19283 42.5524 7.18545 43.89 7.64943C44.7093 7.92949 45.2778 8.69025 46.2057 9.14169C47.7774 9.90664 49.4327 9.77288 50.7536 9.26292C51.9449 8.80311 52.8562 8.00473 53.2951 6.98062C53.7298 8.00473 54.6201 8.87 55.8323 9.26292C57.1198 9.84394 58.8043 9.90664 60.3802 9.14169C61.3082 8.69025 61.8808 7.93367 62.6959 7.64943C64.0377 7.18545 64.5518 8.19283 66.0608 7.14365C64.7107 7.30249 64.1631 5.71826 62.9258 5.71826M53.2951 1.57168C53.642 1.57586 54.0015 1.82666 53.9471 2.30319C53.8844 2.85077 53.4205 3.17681 53.2951 4.34304C53.1655 3.17263 52.7057 2.84659 52.6388 2.30319C52.5803 1.82666 52.9439 1.57586 53.2951 1.57168Z"
        fill="#85754E"></path>
    <path
        d="M43.8065 9.02477C42.448 9.60579 40.6297 9.71447 39.175 8.7029C37.1394 7.27752 35.179 7.45726 34.4098 8.8074C33.7494 9.97363 34.4266 11.1566 35.3294 11.3405C35.8394 11.4408 36.5082 11.2402 36.8259 10.8055C37.3149 10.1492 36.7381 9.15435 36.1989 9.59325C35.9272 9.81479 35.9314 10.2788 35.5802 10.4334C35.2417 10.5797 34.878 10.3415 34.7902 10.0113C34.5143 8.98297 35.3712 8.21803 36.4162 8.15115C36.8677 8.12189 38.0841 8.47718 38.4435 9.96945C39.9692 9.03731 41.2609 10.4084 43.8107 9.02477"
        fill="#85754E"></path>
    <path
        d="M29.9121 12.7616C31.0951 12.7616 32.2236 11.9549 33.0095 10.5504C33.9876 8.81153 35.0577 7.99225 36.4873 7.89193V7.69964C36.4246 7.69964 36.366 7.69547 36.3033 7.69547C34.6104 7.69547 33.2937 8.90767 32.6208 10.0405C31.8934 11.2736 30.9697 11.9507 30.025 11.9507C29.3604 11.9507 28.7375 11.6038 28.4324 11.0646C28.0938 10.471 28.0436 9.78965 28.2986 9.25043C28.4951 8.82825 28.8546 8.54819 29.3102 8.46459C29.4063 8.44787 29.4983 8.43951 29.5861 8.43951C30.2883 8.43951 30.6603 8.96619 30.7189 9.48451C30.769 9.91923 30.5976 10.4083 30.1002 10.5253C30.0459 10.5379 29.9915 10.5462 29.9372 10.5462C29.6613 10.5462 29.4523 10.379 29.444 10.1575C29.444 10.0823 29.4649 10.0112 29.5067 9.96939C29.5276 9.94849 29.5484 9.93595 29.5693 9.93595H29.5735C29.6028 10.1199 29.7324 10.216 29.8536 10.216C29.9623 10.216 30.0877 10.1324 30.0918 9.95685C30.0918 9.83981 30.0542 9.73949 29.979 9.66007C29.887 9.56393 29.7449 9.50959 29.5861 9.50959C29.3018 9.50959 28.9925 9.69351 28.9925 10.099C28.9925 10.2871 29.0678 10.471 29.2099 10.6131C29.3729 10.7803 29.5986 10.8723 29.8536 10.8723C29.9497 10.8723 30.0459 10.8597 30.142 10.8347C30.932 10.6173 31.2121 9.95267 31.1369 9.38837C31.0574 8.79481 30.5642 8.15945 29.6655 8.15945C29.5234 8.15945 29.3729 8.17617 29.2224 8.20961C28.5954 8.34337 28.098 8.72793 27.8137 9.30059C27.4919 9.96103 27.4961 10.7929 27.8263 11.4742C28.2108 12.2684 29.0092 12.7616 29.9121 12.7616Z"
        fill="#85754E"></path>
    <path
        d="M30.1462 9.98609C30.1462 10.2954 29.8954 10.5462 29.5819 10.5462C29.2684 10.5462 29.0176 10.2912 29.0176 9.98609C29.0176 9.68095 29.2726 9.42178 29.5819 9.42178C29.8912 9.42178 30.1462 9.67259 30.1462 9.98609Z"
        fill="#85754E"></path>
    <path
        d="M76.5068 12.7616C75.3239 12.7616 74.1953 11.9549 73.4094 10.5504C72.4313 8.81153 71.3612 7.99225 69.9316 7.89193V7.69964C69.9943 7.69964 70.057 7.69547 70.1197 7.69547C71.8085 7.69547 73.1294 8.90767 73.7982 10.0405C74.5297 11.2736 75.4535 11.9507 76.3981 11.9507C77.0628 11.9507 77.6856 11.6038 77.9907 11.0646C78.3251 10.471 78.3753 9.78965 78.1245 9.25043C77.928 8.82825 77.5685 8.54819 77.1171 8.46459C77.0251 8.44787 76.929 8.43951 76.8412 8.43951C76.139 8.43951 75.7669 8.96619 75.7042 9.48451C75.6541 9.91923 75.8255 10.4083 76.3229 10.5253C76.3814 10.5379 76.4357 10.5462 76.4901 10.5462C76.7618 10.5462 76.975 10.379 76.9791 10.1575C76.9791 10.0823 76.9583 10.0112 76.9165 9.96939C76.8956 9.94849 76.8705 9.93595 76.8496 9.93595H76.8454C76.8161 10.1199 76.6865 10.216 76.5653 10.216C76.4566 10.216 76.3312 10.1324 76.3271 9.95685C76.3271 9.83981 76.3647 9.73949 76.4399 9.66007C76.5319 9.56393 76.674 9.50959 76.8329 9.50959C77.1171 9.50959 77.4264 9.69351 77.4264 10.099C77.4264 10.2871 77.3512 10.471 77.2091 10.6131C77.046 10.7803 76.8161 10.8723 76.5653 10.8723C76.4692 10.8723 76.373 10.8597 76.2769 10.8347C75.4869 10.6173 75.2068 9.95267 75.2821 9.38837C75.3615 8.79481 75.8547 8.15945 76.7576 8.15945C76.8997 8.15945 77.0502 8.17617 77.2007 8.20961C77.8277 8.34337 78.3251 8.72793 78.6052 9.30059C78.927 9.96103 78.9229 10.7929 78.5926 11.4742C78.2123 12.2684 77.4097 12.7616 76.5068 12.7616Z"
        fill="#85754E"></path>
    <path
        d="M62.7881 9.02477C64.1466 9.60579 65.9649 9.71447 67.4195 8.7029C69.4594 7.27752 71.4156 7.45726 72.1848 8.8074C72.8452 9.97363 72.1638 11.1566 71.2651 11.3405C70.7552 11.4408 70.0906 11.2402 69.7687 10.8055C69.2796 10.1492 69.8523 9.15435 70.3957 9.59325C70.6632 9.81479 70.6632 10.2788 71.0144 10.4334C71.3529 10.5797 71.7166 10.3415 71.8085 10.0113C72.0802 8.98297 71.2234 8.21803 70.1825 8.15115C69.7311 8.12189 68.5105 8.47718 68.1552 9.96945C66.6337 9.03731 65.3379 10.4084 62.7881 9.02477Z"
        fill="#85754E"></path>
    <path
        d="M77.393 9.98609C77.393 10.2954 77.1422 10.5462 76.8328 10.5462C76.5235 10.5462 76.2686 10.2912 76.2686 9.98609C76.2686 9.68095 76.5235 9.42178 76.8328 9.42178C77.1422 9.42178 77.393 9.67259 77.393 9.98609Z"
        fill="#85754E"></path>
    <path
        d="M16.0847 20.9921C16.9374 20.733 17.7902 20.478 18.6471 20.2355L18.7223 20.4989C18.5049 20.5574 18.2918 20.6201 18.0744 20.6828C18.877 23.4541 19.6837 26.2255 20.4905 28.9969C20.6911 28.9383 20.8918 28.8798 21.0924 28.8255L21.1634 29.0888C20.3692 29.3145 19.5792 29.5486 18.7892 29.7911L18.7098 29.5319C18.9104 29.4692 19.1111 29.4065 19.3117 29.348C18.4799 26.585 17.6439 23.822 16.812 21.059C16.5989 21.1217 16.3815 21.1886 16.1683 21.2555L16.0889 20.9921H16.0847Z"
        fill="black"></path>
    <path
        d="M22.3172 19.249C23.1866 19.0274 24.0602 18.8184 24.9339 18.6178C24.9548 18.7056 24.9757 18.7975 24.9966 18.8853C24.7708 18.9355 24.5535 18.9898 24.3278 19.04C24.9882 21.849 25.6528 24.6579 26.3133 27.4711C27.2412 27.2244 27.9226 26.9946 28.2779 26.1167C28.5078 25.5357 28.4952 25.0717 28.4492 24.4029C28.5537 24.382 28.6541 24.3611 28.7544 24.3402C28.9049 25.2598 29.0554 26.1836 29.21 27.1032C27.6592 27.4293 26.1126 27.7846 24.5702 28.1733C24.5493 28.0855 24.5284 27.9978 24.5033 27.91C24.704 27.8598 24.9046 27.8097 25.1094 27.7595C24.4155 24.9547 23.7258 22.1541 23.0319 19.3535C22.8146 19.4078 22.5972 19.458 22.3799 19.5165L22.313 19.2532L22.3172 19.249Z"
        fill="black"></path>
    <path
        d="M36.3955 22.6809C36.5877 23.3748 36.7675 24.0603 37.3067 24.658C37.7832 25.1972 38.2556 25.331 38.6861 25.2808C39.5137 25.1763 39.9192 24.4239 39.8231 23.5712C39.7019 22.4844 38.8909 22.0079 37.6118 21.3224C36.6797 20.8124 35.7099 20.3108 35.5051 18.8896C35.3337 17.7443 36.0151 16.4694 37.2774 16.3105C38.1427 16.2018 38.5147 16.5781 38.7739 16.8372C38.8533 16.6324 38.9369 16.4234 39.0163 16.2186C39.1167 16.206 39.217 16.1977 39.3131 16.1851C39.4301 17.0713 39.5472 17.9575 39.6642 18.8436C39.5514 18.8562 39.4343 18.8687 39.3173 18.8854C39.054 18.0243 38.5816 16.5028 37.336 16.6575C36.6421 16.7452 36.1488 17.3263 36.2575 18.1121C36.3704 18.9523 36.8553 19.2198 38.3392 20.0349C39.4469 20.6452 40.3414 21.1802 40.5002 22.6851C40.6424 24.0436 40.0488 25.4773 38.7321 25.6445C37.8167 25.7615 37.2482 25.2098 37.0434 25.0008C36.9556 25.2599 36.8678 25.5191 36.78 25.7741C36.6881 25.7866 36.5961 25.7992 36.5041 25.8117C36.3537 24.7834 36.2074 23.7593 36.0569 22.731C36.1697 22.7143 36.2784 22.6976 36.3913 22.6809"
        fill="black"></path>
    <path
        d="M47.1003 15.5581C47.2759 15.5497 47.4515 15.5413 47.627 15.533C48.4965 18.4715 49.3157 21.4143 50.089 24.3695C50.2939 24.3654 50.5029 24.3612 50.7077 24.3528C50.7077 24.4448 50.7119 24.5367 50.7161 24.6287C49.8759 24.6454 49.0399 24.6747 48.1997 24.7123C48.1997 24.6204 48.1913 24.5284 48.1871 24.4406C48.4045 24.4322 48.6177 24.4239 48.835 24.4155C48.6344 23.6882 48.4338 22.9609 48.2289 22.2377C47.5309 22.267 46.837 22.3046 46.1431 22.3464C46.0553 22.8647 45.9675 23.3831 45.8756 23.9014C45.8547 24.0184 45.8254 24.1522 45.8338 24.2818C45.8547 24.5827 46.1013 24.566 46.4315 24.5326C46.4357 24.6203 46.4399 24.7165 46.4441 24.8043C45.8421 24.8377 45.2444 24.8795 44.6425 24.9213C44.6341 24.8294 44.6299 24.7416 44.6216 24.6496C45.2528 24.6036 45.3907 24.5033 45.5161 23.7802C45.9968 21.0381 46.5277 18.3002 47.1003 15.5623M46.9875 17.786C46.7074 19.2072 46.4441 20.6326 46.1891 22.0538C46.8454 22.012 47.5016 21.9786 48.1579 21.9535C47.7775 20.5616 47.3887 19.1738 46.9875 17.786Z"
        fill="black"></path>
    <path
        d="M54.6328 15.4034C55.5231 15.4118 56.4135 15.4327 57.3038 15.4578C57.3038 15.5497 57.2996 15.6375 57.2954 15.7295C57.0697 15.7211 56.844 15.7169 56.6141 15.7086C56.5389 18.5928 56.4636 21.4812 56.3884 24.3654C57.3414 24.3654 58.0562 24.3152 58.6205 23.5586C58.9925 23.0528 59.0928 22.6014 59.2182 21.9451C59.3227 21.9493 59.4231 21.9577 59.5276 21.9619C59.4398 22.894 59.352 23.822 59.2642 24.7541C57.6884 24.6747 56.1125 24.6245 54.5366 24.6078C54.5366 24.5159 54.5366 24.4239 54.5366 24.3361C54.7456 24.3361 54.9505 24.3361 55.1595 24.3445C55.2054 21.4561 55.2514 18.5719 55.2974 15.6877C55.0758 15.6877 54.8543 15.6793 54.6286 15.6793C54.6286 15.5873 54.6286 15.4996 54.6328 15.4076"
        fill="black"></path>
    <path
        d="M67.6033 16.231C67.967 16.4442 68.293 16.8246 68.5313 17.3137C69.0789 18.4297 69.0203 20.0265 68.9116 20.8918C68.6107 23.1532 67.3692 25.5567 65.7139 25.3769C65.3461 25.3393 65.0828 25.193 64.8487 25.0133C63.6448 24.0477 63.5278 21.8364 63.6365 20.5741C63.8831 17.5477 65.3879 15.8339 66.8885 15.9928C67.1393 16.022 67.3901 16.1015 67.6075 16.231M65.5133 17.6063C65.3586 18.1915 65.2332 18.9272 65.0242 21.0799C64.9615 21.7152 64.8779 22.7017 64.9155 23.4625C64.9448 24.2776 65.1204 25.0133 65.7934 25.0843C66.6085 25.1721 66.8718 24.2483 67.0223 23.6506C67.2355 22.7561 67.3107 22.1249 67.5782 19.8342C67.6451 19.2657 67.7788 18.1037 67.7036 17.4224C67.6451 16.8372 67.457 16.3564 66.8467 16.2896C65.8686 16.1851 65.5927 17.251 65.5175 17.6063"
        fill="black"></path>
    <path
        d="M74.3248 17.1506C75.0438 17.2718 75.7627 17.3972 76.4775 17.531C77.0836 20.0891 77.6312 22.6515 78.1161 25.2138C78.555 23.1406 78.9939 21.0715 79.4369 18.9982C79.554 18.438 79.3366 18.3753 78.8183 18.2708C78.835 18.1789 78.8559 18.0911 78.8726 18.0033C79.4787 18.1287 80.0848 18.2583 80.6909 18.3921C80.67 18.484 80.6533 18.5718 80.6324 18.6596C80.1308 18.5467 79.8926 18.5007 79.7881 19.0483C79.2029 21.7779 78.6135 24.5074 78.0241 27.2328C77.744 27.1743 77.4598 27.1158 77.1797 27.0531C76.6238 24.102 75.9884 21.1509 75.2695 18.1998C74.8389 20.6367 74.4042 23.0779 73.9695 25.519C73.8734 26.0582 73.936 26.1585 74.5547 26.2589C74.538 26.3466 74.5212 26.4386 74.5045 26.5264C73.936 26.4219 73.3676 26.3216 72.7991 26.2254C72.8158 26.1335 72.8284 26.0457 72.8451 25.9537C73.3927 26.0582 73.5515 26.0081 73.6434 25.4688C74.0782 22.9817 74.5129 20.4946 74.9476 18.0033C75.0312 17.5268 74.7888 17.5017 74.283 17.4139C74.2997 17.322 74.3122 17.2342 74.3248 17.1464"
        fill="black"></path>
    <path
        d="M85.4605 19.5457C87.0907 19.9763 88.7167 20.4361 90.3343 20.9335C90.0961 21.711 89.8578 22.4843 89.6196 23.2618C89.5151 23.2283 89.4064 23.1949 89.2977 23.1615C89.3729 22.8605 89.5569 22.0705 89.072 21.3557C88.6498 20.712 87.9726 20.5197 87.3122 20.3316C86.9527 21.6232 86.589 22.9148 86.2296 24.2065C86.6016 24.311 87.0029 24.4113 87.4041 24.2274C87.9225 23.9849 88.1231 23.4081 88.2736 22.9901C88.3781 23.0193 88.491 23.0528 88.5955 23.0862C88.2402 24.2775 87.889 25.473 87.5337 26.6685C87.4292 26.6392 87.3247 26.6058 87.2202 26.5724C87.2955 26.2714 87.3665 25.937 87.308 25.5942C87.191 24.8126 86.5682 24.6203 86.146 24.4907C85.7572 25.8827 85.3685 27.2746 84.9797 28.6665C85.5733 28.8212 86.2379 29.0135 86.9109 28.7209C87.6967 28.3698 88.0855 27.5797 88.3405 27.0154C88.4408 27.0447 88.5411 27.074 88.6414 27.1074C88.3279 27.9852 88.0144 28.8672 87.7051 29.7492C86.1836 29.281 84.6537 28.8505 83.1196 28.445C83.1447 28.3572 83.1656 28.2694 83.1907 28.1817C83.3872 28.236 83.5836 28.2862 83.7801 28.3405C84.5283 25.5524 85.2765 22.7644 86.0247 19.9763C85.8116 19.9178 85.6026 19.8634 85.3852 19.8091C85.4103 19.7213 85.4354 19.6335 85.4563 19.5416"
        fill="black"></path>
    <path
        d="M38.498 31.7432C38.7405 31.7097 38.9788 31.6763 39.217 31.6428C39.6852 32.1695 40.1492 32.7046 40.6048 33.2396C40.9141 32.6084 41.2318 31.9814 41.5578 31.3544C41.8003 31.3252 42.0385 31.3001 42.281 31.275C42.4106 32.5081 42.5443 33.7412 42.6739 34.9785C42.4565 35.0036 42.2392 35.0245 42.0218 35.0495C41.9215 34.1634 41.8212 33.2814 41.7208 32.3952C41.3864 33.0222 41.0562 33.6492 40.7344 34.2804C40.726 34.2804 40.7218 34.2804 40.7135 34.2804C40.2495 33.7496 39.7813 33.2271 39.3048 32.7046C39.426 33.5824 39.5431 34.4602 39.6643 35.338C39.4511 35.3672 39.2379 35.3965 39.0247 35.4299C38.8492 34.201 38.6736 32.9721 38.498 31.7432Z"
        fill="black"></path>
    <path
        d="M44.9602 31.0199C45.1859 31.0032 45.4116 30.9823 45.6374 30.9656C45.7335 32.2029 45.8255 33.4401 45.9216 34.6774C45.7042 34.6942 45.4827 34.7109 45.2653 34.7276C45.165 33.4903 45.0647 32.253 44.9602 31.0157"
        fill="black"></path>
    <path
        d="M48.3252 30.7943C48.5509 30.7818 48.7809 30.7734 49.0066 30.7609C49.0526 31.8017 49.0985 32.8467 49.1445 33.8875C49.805 33.8582 50.4612 33.8332 51.1175 33.8165C51.1258 34.0171 51.1259 34.2136 51.1342 34.4142C50.2606 34.4393 49.387 34.4685 48.5133 34.5145C48.4506 33.273 48.3879 32.0358 48.321 30.7943"
        fill="black"></path>
    <path
        d="M54.7707 30.6313C54.9797 30.6313 55.1929 30.6313 55.4019 30.6396C55.9494 31.8978 56.4803 33.1602 56.9903 34.4267C56.7562 34.4225 56.5263 34.4142 56.2964 34.41C56.1752 34.109 56.054 33.8039 55.9327 33.5029C55.3392 33.4904 54.7456 33.482 54.152 33.482C54.0225 33.7788 53.8929 34.0798 53.7633 34.3807C53.5418 34.3807 53.3161 34.3807 53.0903 34.3807C53.6296 33.1267 54.1897 31.8769 54.7665 30.6313M55.6987 32.9177C55.4897 32.4161 55.2765 31.9187 55.0591 31.4171C54.8334 31.9103 54.6119 32.4078 54.3945 32.901C54.8292 32.901 55.2639 32.9052 55.6987 32.9177Z"
        fill="black"></path>
    <path
        d="M59.4188 30.7941C59.6278 30.8025 59.8368 30.815 60.0458 30.8276C60.6895 31.7221 61.3124 32.625 61.9226 33.532C61.9853 32.6751 62.0522 31.8224 62.1191 30.9655C62.3365 30.9822 62.5622 30.999 62.7837 31.0199C62.6834 32.2571 62.5831 33.4944 62.4786 34.7317C62.2946 34.7192 62.1149 34.7024 61.931 34.6899C61.3123 33.7578 60.677 32.8298 60.0249 31.906C59.9747 32.788 59.9246 33.67 59.8744 34.552C59.6612 34.5394 59.4439 34.5269 59.2307 34.5185C59.2934 33.2771 59.3561 32.0398 59.4188 30.7983"
        fill="black"></path>
    <path
        d="M65.062 33.11C65.062 33.11 65.062 33.1016 65.062 33.0974C65.1665 32.0566 66.0986 31.2666 67.2815 31.4129C68.4645 31.5592 69.1667 32.5415 69.0162 33.574V33.5823C68.8658 34.619 67.9336 35.3714 66.8008 35.2293C65.6639 35.0913 64.9575 34.1466 65.062 33.1058M68.3182 33.4945V33.4862C68.4185 32.7672 67.9587 32.0984 67.1938 32.0065C66.433 31.9103 65.8353 32.4412 65.76 33.1601C65.76 33.1643 65.76 33.1685 65.76 33.1727C65.6806 33.8916 66.1446 34.5395 66.8844 34.6315C67.6243 34.7235 68.2179 34.2135 68.3182 33.4987"
        fill="black"></path>
    <path d="M21.8489 40.9893H21.1633V40.4292H23.1238V40.9893H22.4382V44.5632H21.8489V40.9893Z" fill="black"></path>
    <path
        d="M23.96 40.4292H24.5535V42.2015H25.2808V40.4292H25.8744V44.5632H25.2808V42.724H24.5535V44.5632H23.96V40.4292Z"
        fill="black"></path>
    <path
        d="M27.0029 40.4292H28.7669V40.9893H27.5923V42.2015H28.6123V42.7575H27.5923V43.9697H28.7669V44.5632H27.0029V40.4292Z"
        fill="black"></path>
    <path d="M31.3711 40.4292H31.9646V43.9697H33.1351V44.5632H31.3711V40.4292Z" fill="black"></path>
    <path
        d="M34.0923 40.4292H35.8563V40.9893H34.6858V42.2015H35.7058V42.7575H34.6858V43.9697H35.8563V44.5632H34.0923V40.4292Z"
        fill="black"></path>
    <path
        d="M36.7715 41.4032C36.7715 41.236 36.8008 41.0897 36.8593 40.9602C36.9178 40.8306 36.993 40.7302 37.0892 40.6425C37.1853 40.5589 37.2898 40.4962 37.4069 40.4544C37.5239 40.4126 37.6451 40.3917 37.7663 40.3917C37.8876 40.3917 38.0046 40.4126 38.1217 40.4544C38.2387 40.4962 38.3432 40.5589 38.4393 40.6425C38.5313 40.7261 38.6107 40.8306 38.6692 40.9602C38.7278 41.0897 38.757 41.236 38.757 41.4032V41.6122H38.1634V41.4032C38.1634 41.2611 38.1217 41.1566 38.0422 41.0855C37.9628 41.0187 37.8709 40.9852 37.7622 40.9852C37.6535 40.9852 37.5573 41.0187 37.4779 41.0855C37.3985 41.1524 37.3609 41.2611 37.3609 41.4032V43.5852C37.3609 43.7273 37.3985 43.836 37.4779 43.9029C37.5573 43.9698 37.6535 44.0032 37.7622 44.0032C37.8709 44.0032 37.9628 43.9698 38.0422 43.9029C38.1217 43.836 38.1634 43.7315 38.1634 43.5852V42.8077H37.6911V42.2852H38.7528V43.5852C38.7528 43.7566 38.7236 43.9029 38.6651 44.0283C38.6065 44.1537 38.5313 44.2582 38.4352 44.3418C38.339 44.4254 38.2345 44.4881 38.1175 44.5299C38.0004 44.5717 37.8792 44.5926 37.7622 44.5926C37.6451 44.5926 37.5239 44.5717 37.4027 44.5299C37.2856 44.4881 37.177 44.4254 37.085 44.3418C36.9889 44.2582 36.9136 44.1537 36.8551 44.0283C36.7966 43.9029 36.7673 43.7566 36.7673 43.5852V41.4032H36.7715Z"
        fill="black"></path>
    <path
        d="M39.8481 40.4292H41.6121V40.9893H40.4417V42.2015H41.4616V42.7575H40.4417V43.9697H41.6121V44.5632H39.8481V40.4292Z"
        fill="black"></path>
    <path
        d="M42.5483 40.4292H43.1168L44.0113 42.9205H44.0197V40.4292H44.6133V44.5632H44.0573L43.1503 42.0761H43.1377V44.5632H42.5483V40.4292Z"
        fill="black"></path>
    <path
        d="M45.7209 40.4292H46.5946C46.929 40.4292 47.1881 40.5253 47.3679 40.7134C47.5434 40.9016 47.6354 41.1607 47.6354 41.4993V43.4305C47.6354 43.8192 47.5392 44.1034 47.3553 44.2874C47.1672 44.4713 46.8997 44.5632 46.5486 44.5632H45.7251V40.4334L45.7209 40.4292ZM46.3103 44.0031H46.5862C46.7492 44.0031 46.8663 43.9613 46.9373 43.8777C47.0084 43.7941 47.0418 43.6645 47.0418 43.4848V41.4951C47.0418 41.3321 47.0126 41.2067 46.9415 41.1189C46.8746 41.0311 46.7576 40.9851 46.5862 40.9851H46.3103V44.0031Z"
        fill="black"></path>
    <path
        d="M49.3493 40.4292H49.8467L50.7663 44.5591H50.1728L50.0014 43.6729H49.1946L49.0233 44.5591H48.4297L49.3493 40.4292ZM49.5959 41.6163H49.5876L49.2991 43.1128H49.8885L49.5959 41.6163Z"
        fill="black"></path>
    <path
        d="M51.6316 40.4292H52.5846C53.2785 40.4292 53.6296 40.8305 53.6296 41.6414C53.6296 41.8839 53.592 42.0887 53.5168 42.26C53.4415 42.4314 53.3078 42.5694 53.1197 42.6739L53.7592 44.5591H53.1322L52.5804 42.7951H52.2251V44.5591H51.6358V40.4292H51.6316ZM52.221 42.2726H52.5595C52.664 42.2726 52.7477 42.2601 52.8062 42.2308C52.8689 42.2015 52.919 42.1597 52.9525 42.1054C52.9859 42.051 53.0068 41.9842 53.0194 41.9047C53.0277 41.8253 53.0361 41.7334 53.0361 41.6289C53.0361 41.5244 53.0319 41.4324 53.0194 41.353C53.0068 41.2736 52.9817 41.2067 52.9441 41.1482C52.9065 41.0938 52.8563 41.052 52.7894 41.0228C52.7226 40.9977 52.6348 40.9851 52.5303 40.9851H52.221V42.2726Z"
        fill="black"></path>
    <path
        d="M55.1261 42.816L54.311 40.4292H54.938L55.4146 42.072H55.4271L55.8994 40.4292H56.5264L55.7155 42.816V44.5632H55.1261V42.816Z"
        fill="black"></path>
    <path
        d="M60.932 43.6395C60.932 43.769 60.9069 43.8861 60.8609 44.0031C60.8149 44.1202 60.7481 44.2205 60.6603 44.3082C60.5767 44.396 60.4764 44.4629 60.3635 44.5172C60.2506 44.5716 60.1253 44.5967 59.9957 44.5967C59.8828 44.5967 59.77 44.5841 59.6529 44.5507C59.5359 44.5173 59.4314 44.4671 59.3394 44.3919C59.2475 44.3166 59.1722 44.2163 59.1137 44.0951C59.051 43.9739 59.0217 43.815 59.0217 43.6269V41.353C59.0217 41.2192 59.0426 41.0938 59.0928 40.9768C59.1388 40.8639 59.2057 40.7636 59.2893 40.6758C59.3729 40.5922 59.4773 40.5253 59.5944 40.4752C59.7156 40.425 59.841 40.4041 59.9873 40.4041C60.1211 40.4041 60.2465 40.4292 60.3635 40.4752C60.4805 40.5253 60.5809 40.5922 60.6645 40.68C60.7523 40.7678 60.8191 40.8723 60.8651 40.9935C60.9153 41.1147 60.9362 41.2485 60.9362 41.3906V41.6205H60.3468V41.424C60.3468 41.307 60.3134 41.2109 60.2465 41.1231C60.1796 41.0395 60.0918 40.9977 59.9789 40.9977C59.8326 40.9977 59.7365 41.0437 59.6863 41.1314C59.6362 41.2234 59.6153 41.3363 59.6153 41.4784V43.5893C59.6153 43.7105 59.6404 43.8108 59.6947 43.8902C59.749 43.9697 59.841 44.0115 59.9748 44.0115C60.0166 44.0115 60.0542 44.0031 60.1002 43.9906C60.1462 43.978 60.1838 43.9571 60.2256 43.9237C60.259 43.8944 60.2924 43.8485 60.3133 43.7941C60.3384 43.7398 60.351 43.6729 60.351 43.5935V43.3887H60.9403V43.6478L60.932 43.6395Z"
        fill="black"></path>
    <path
        d="M61.9478 41.4032C61.9478 41.236 61.977 41.0897 62.0355 40.9602C62.094 40.8306 62.1693 40.7302 62.2696 40.6425C62.3616 40.5589 62.4661 40.4962 62.5873 40.4544C62.7043 40.4126 62.8256 40.3917 62.9426 40.3917C63.0596 40.3917 63.1809 40.4126 63.2979 40.4544C63.4149 40.4962 63.5236 40.5589 63.6198 40.6425C63.7117 40.7261 63.787 40.8306 63.8455 40.9602C63.904 41.0897 63.9333 41.236 63.9333 41.4032V43.5852C63.9333 43.7566 63.904 43.9029 63.8455 44.0283C63.787 44.1537 63.7117 44.2582 63.6198 44.3418C63.5236 44.4254 63.4191 44.4881 63.2979 44.5299C63.1809 44.5717 63.0596 44.5926 62.9426 44.5926C62.8256 44.5926 62.7043 44.5717 62.5873 44.5299C62.4661 44.4881 62.3616 44.4254 62.2696 44.3418C62.1735 44.2582 62.094 44.1537 62.0355 44.0283C61.977 43.9029 61.9478 43.7566 61.9478 43.5852V41.4032ZM62.5413 43.5852C62.5413 43.7273 62.5831 43.836 62.6625 43.9029C62.7378 43.9698 62.8339 44.0032 62.9426 44.0032C63.0513 44.0032 63.1432 43.9698 63.2227 43.9029C63.3021 43.836 63.3439 43.7315 63.3439 43.5852V41.4032C63.3439 41.2611 63.3021 41.1566 63.2227 41.0855C63.1432 41.0187 63.0513 40.9852 62.9426 40.9852C62.8339 40.9852 62.7378 41.0187 62.6625 41.0855C62.5831 41.1524 62.5413 41.2611 62.5413 41.4032V43.5852Z"
        fill="black"></path>
    <path d="M65.0286 40.4292H65.6221V43.9697H66.7925V44.5632H65.0286V40.4292Z" fill="black"></path>
    <path d="M67.7539 40.4292H68.3433V43.9697H69.5179V44.5632H67.7539V40.4292Z" fill="black"></path>
    <path
        d="M70.4751 40.4292H72.2391V40.9893H71.0645V42.2015H72.0886V42.7575H71.0645V43.9697H72.2391V44.5632H70.4751V40.4292Z"
        fill="black"></path>
    <path
        d="M75.0732 43.6395C75.0732 43.769 75.0481 43.8861 74.998 44.0031C74.952 44.1202 74.8851 44.2205 74.7973 44.3082C74.7137 44.396 74.6134 44.4629 74.5005 44.5172C74.3877 44.5716 74.2623 44.5967 74.1285 44.5967C74.0157 44.5967 73.9028 44.5841 73.7858 44.5507C73.6687 44.5173 73.5642 44.4671 73.4723 44.3919C73.3803 44.3166 73.305 44.2163 73.2423 44.0951C73.1838 43.9739 73.1504 43.815 73.1504 43.6269V41.353C73.1504 41.2192 73.1755 41.0938 73.2214 40.9768C73.2674 40.8639 73.3343 40.7636 73.4179 40.6758C73.5015 40.5922 73.606 40.5253 73.7231 40.4752C73.8401 40.425 73.9697 40.4041 74.1118 40.4041C74.2539 40.4041 74.3751 40.4292 74.488 40.4752C74.605 40.5253 74.7053 40.5922 74.7889 40.68C74.8725 40.7678 74.9436 40.8723 74.9896 40.9935C75.0398 41.1147 75.0648 41.2485 75.0648 41.3906V41.6205H74.4713V41.424C74.4713 41.307 74.4378 41.2109 74.3709 41.1231C74.3041 41.0395 74.2163 40.9977 74.1034 40.9977C73.9571 40.9977 73.861 41.0437 73.8108 41.1314C73.7649 41.2234 73.7398 41.3363 73.7398 41.4784V43.5893C73.7398 43.7105 73.7648 43.8108 73.8192 43.8902C73.8693 43.9697 73.9655 44.0115 74.0993 44.0115C74.1369 44.0115 74.1787 44.0031 74.2247 43.9906C74.2665 43.978 74.3082 43.9571 74.3459 43.9237C74.3835 43.8944 74.4128 43.8485 74.4378 43.7941C74.4587 43.7398 74.4713 43.6729 74.4713 43.5935V43.3887H75.0648V43.6478L75.0732 43.6395Z"
        fill="black"></path>
    <path d="M76.5151 40.9893H75.8296V40.4292H77.79V40.9893H77.1045V44.5632H76.5151V40.9893Z" fill="black"></path>
    <path d="M78.6428 40.4292H79.2364V44.5632H78.6428V40.4292Z" fill="black"></path>
    <path
        d="M80.3525 41.4032C80.3525 41.236 80.3818 41.0897 80.4361 40.9602C80.4947 40.8306 80.5699 40.7302 80.666 40.6425C80.7622 40.5589 80.8667 40.4962 80.9837 40.4544C81.1008 40.4126 81.222 40.3917 81.339 40.3917C81.4561 40.3917 81.5773 40.4126 81.6985 40.4544C81.8156 40.4962 81.9201 40.5589 82.0162 40.6425C82.1123 40.7261 82.1876 40.8306 82.2461 40.9602C82.3046 41.0897 82.3339 41.236 82.3339 41.4032V43.5852C82.3339 43.7566 82.3046 43.9029 82.2461 44.0283C82.1876 44.1537 82.1123 44.2582 82.0162 44.3418C81.9201 44.4254 81.8156 44.4881 81.6985 44.5299C81.5815 44.5717 81.4603 44.5926 81.339 44.5926C81.2178 44.5926 81.1008 44.5717 80.9837 44.5299C80.8667 44.4881 80.758 44.4254 80.666 44.3418C80.5699 44.2582 80.4947 44.1537 80.4361 44.0283C80.3776 43.9029 80.3525 43.7566 80.3525 43.5852V41.4032ZM80.9419 43.5852C80.9419 43.7273 80.9795 43.836 81.0631 43.9029C81.1426 43.9698 81.2387 44.0032 81.3432 44.0032C81.4477 44.0032 81.5439 43.9698 81.6275 43.9029C81.7069 43.836 81.7445 43.7315 81.7445 43.5852V41.4032C81.7445 41.2611 81.7069 41.1566 81.6275 41.0855C81.548 41.0187 81.4561 40.9852 81.3432 40.9852C81.2303 40.9852 81.1426 41.0187 81.0631 41.0855C80.9837 41.1524 80.9419 41.2611 80.9419 41.4032V43.5852Z"
        fill="black"></path>
    <path
        d="M83.4038 40.4292H83.9723L84.8668 42.9205H84.8752V40.4292H85.4687V44.5632H84.9128L84.0057 42.0761H83.9974V44.5632H83.4038V40.4292Z"
        fill="black"></path>
</svg>