<?xml version="1.0" encoding="UTF-8"?>
<svg width="146px" height="24px" viewBox="0 0 146 24" version="1.1" xmlns="http://www.w3.org/2000/svg"
    xmlns:xlink="http://www.w3.org/1999/xlink">
    <title>Olaplex</title>
    <g id="NAVIGATION---06.10.20" stroke="none" stroke-width="1" fill="none" fill-rule="evenodd">
        <g id="01_OLA_NAV-TRANSPARENT_DESKTOP" transform="translate(-567.000000, -26.000000)" fill="#020303">
            <g id="Navigation/Transparent/Desktop">
                <g id="Logo-1" transform="translate(567.000000, 26.000000)">
                    <path
                        d="M11.7545664,1.77635684e-15 C18.6245557,1.77635684e-15 23.8557735,5.13649582 23.8557735,11.879935 C23.8557735,18.5289475 18.656033,23.76 11.9436904,23.76 C4.97913911,23.76 0,18.3083586 0,11.9744916 C0,5.23092244 5.23121778,1.77635684e-15 11.7545664,1.77635684e-15 Z M33.0255059,0.567197018 L33.0255059,20.986888 L41.7232607,20.986888 L41.7232607,23.192777 L30.7565377,23.192777 L30.7565377,0.567197018 L33.0255059,0.567197018 Z M56.9440909,0.567144992 L67.5012185,23.1927249 L65.0746036,23.1927249 L61.5136347,15.7559135 L51.7444805,15.7559135 L48.2148588,23.1927249 L45.6938119,23.1927249 L56.4084562,0.567144992 L56.9440909,0.567144992 Z M78.5934085,0.56726205 C80.9569387,0.56726205 82.7217496,0.724769809 83.8247564,1.13447207 C86.1252019,2.01682768 87.543372,4.03347327 87.543372,6.58598341 C87.543372,8.72879129 86.5349273,10.524978 84.9276331,11.5333659 C83.3903457,12.4979108 81.189833,12.6551586 78.2711138,12.667009 L75.6311589,12.6677859 L75.6311589,23.1927119 L73.3621907,23.1927119 L73.3621907,0.56726205 L78.5934085,0.56726205 Z M96.6818093,0.567197018 L96.6818093,20.986888 L105.379564,20.986888 L105.379564,23.192777 L94.4128411,23.192777 L94.4128411,0.567197018 L96.6818093,0.567197018 Z M124.287637,0.567197018 L124.287637,2.77295597 L113.635947,2.77295597 L113.635947,9.86327637 L124.287637,9.86327637 L124.287637,12.0690353 L113.635947,12.0690353 L113.635947,20.986888 L124.287637,20.986888 L124.287637,23.192777 L111.366979,23.192777 L111.366979,0.567197018 L124.287637,0.567197018 Z M132.071158,0.567197018 L137.491369,9.39049296 L142.943318,0.567197018 L145.558927,0.567197018 L138.814977,11.5333008 L146,23.192777 L143.352914,23.192777 L137.491369,13.7077143 L131.56687,23.192777 L128.919654,23.192777 L136.136284,11.5333008 L129.423941,0.567197018 L132.071158,0.567197018 Z M11.8806057,2.20588902 C6.90146661,2.20588902 2.36353022,6.17635919 2.36353022,11.9744916 C2.36353022,17.5520352 6.77542727,21.554111 11.8806057,21.554111 C17.1749082,21.554111 21.4922432,17.5205597 21.4922432,11.8484594 C21.4922432,6.11327805 16.8912221,2.20588902 11.8806057,2.20588902 Z M56.6605349,5.35701969 L52.7529253,13.5501545 L60.5051899,13.5501545 L56.6605349,5.35701969 Z M79.6333306,2.773021 L75.6311589,2.773021 L75.6311589,10.4618969 C76.9231597,10.4933724 78.2152905,10.4618969 79.381382,10.4618969 C81.3350568,10.4618969 82.8477889,10.3358647 83.8562337,9.51659022 C84.6440771,8.88629905 85.1798418,7.72040346 85.1798418,6.58598341 C85.1798418,5.42008783 84.6124697,4.28566778 83.7616717,3.62390107 C82.7532269,2.86757769 81.3981415,2.773021 79.6333306,2.773021 Z"
                        id="Combined-Shape"></path>
                </g>
            </g>
        </g>
    </g>
</svg>