<svg id="Layer_1" data-name="Layer 1" xmlns="http://www.w3.org/2000/svg" viewBox="0 0 638 547.06">
    <defs>
        <style>
            .cls-1 {
                fill-rule: evenodd;
            }
        </style>
    </defs>
    <title>Bed Head Logo Vector</title>
    <path class="cls-1"
        d="M730.9,308.69v-.28c-2.56-2-3.43-5.43-2.85-10.57V297a108.22,108.22,0,0,0-9.71-18h-.86c-3.13-11.71-9.13-20.84-18-26.55a1.07,1.07,0,0,0-.86-.28,20.36,20.36,0,0,1-9.42,2.85h-1.14c-1.43-5.71-4-9.7-8.57-12.28h-.85c-.29,8-3.14,9.71-8.28,5.43-.29-.28-.29-.28-.29-.86-6,3.72-10.28,3.14-13.41-2v-.86c-4.57,0-7.71,1.43-8.85,4.57,0,.28-.29.28-.86.28v.85c-1.71,1.72-3.43,1.43-4.57-.85a1,1,0,0,0-.28-.85c-.86-.86-2.29-1.15-4.57-1.15a1,1,0,0,0-.86.29c-2.85.29-5.13,0-6.57-1.14H629a32.22,32.22,0,0,0-15.13,2h-.57a17.22,17.22,0,0,1-8,4.56h-.86a68.08,68.08,0,0,0-17.12-3.71,6.11,6.11,0,0,0,3.71,4.57,1.37,1.37,0,0,0,.85.29,55.47,55.47,0,0,0,4.28,10.27c.29.29.29.29.57.29-1.42,6.27-.28,10.28,3.14,12,0,.28.57.28.57.28,2.86-5.71,7.14-6.85,13.42-3.42l2,.57a9.72,9.72,0,0,1,6.57,7.42v1.14a54.09,54.09,0,0,0,.85,22.27,8.53,8.53,0,0,1-.28,6.57l.28.57c4.29,3.14,5.14,8.28,3.14,15.42v8.55a19.36,19.36,0,0,1,0,11.43v.85c3.15,4.57,3.43,8.86,0,13.41v.87c-.85,3.71.29,6,2.57,7.14v.56c1.14,2,1.14,4.57.58,8.28H629v1.14a31.73,31.73,0,0,1-4.57,17.13h-1.14c-6-.28-10.27.86-13.13,3.72H609a13.27,13.27,0,0,0-9.42,0c.85,7.13,5.71,11.42,14.27,12,1.44.28,2.29,1.14,2.86,3.14,2,0,4-2,6-5.43.29-.28.29-.28.57-.28,4.29,3.71,7.43,5.71,9.43,4.85h1.14c2.85-4.57,7.42-6.28,13.41-5.14a7.1,7.1,0,0,0,2.86.29c3.71,2.85,10,4,18,3.42a11.72,11.72,0,0,1,2.86.29h4a151.92,151.92,0,0,0,17.69-5.14c1.15,0,2-.86,3.15-1.43,3.71,0,5.71,2,6,5.71,0,.28.29.28.58.28,3.13-9.12,8.27-15.13,16.27-18.83a1,1,0,0,1,.85-.28,122.81,122.81,0,0,0,5.43-15.43,1,1,0,0,0,.28-.85,10.4,10.4,0,0,0,4.57-4,1.07,1.07,0,0,0,.29-.87c-.29-7.7,1.7-13.13,6.27-16.27a.89.89,0,0,0,.29-.57c.57-4,1.14-8.56,2-14.27,1.14-5.43,0-9.71-2.57-12.56-.86-.58-1.43-1.15-2.29-1.71-.57-5.14,1.43-9.14,6.57-12V315C741.75,310.12,738.32,308.12,730.9,308.69Zm-19.7,46c0,.29,0,.29-.29.29a1,1,0,0,1-.28.85,17.09,17.09,0,0,0-.57,6.86h-.86c-.85,3.43-3.71,5.13-8.85,4.56a1,1,0,0,0-.85.29,25.21,25.21,0,0,0-5.71,8.28v.57a57.34,57.34,0,0,1-5.71,1.43,1,1,0,0,1-.28.85,56,56,0,0,0-5.43,6,.88.88,0,0,1-.28.57c-2.58,1.71-4.57,1.43-6.57-.57H675a177.31,177.31,0,0,0-19.13,11.13,1.07,1.07,0,0,1-.86-.28,56.1,56.1,0,0,0-13.42-8.28v1.14a.28.28,0,0,1-.28.29c-2.86.57-4.28-.57-4.57-3.43v-.57c-2.57-6.57-.29-10.28,6.57-10.56h.57c-.57-4.28-2.85-8.29-7.14-12.56v-.86c.29-6.85,2.29-12.28,5.71-16.27v-.86a125.38,125.38,0,0,1-1.14-14.27,87.76,87.76,0,0,1,.28-12.28c-.28,0-.85,0-.85-.28-5.71-.86-8-5.43-6.85-13.14,5.42-1.42,8-5.71,7.42-13.41a4.59,4.59,0,0,1,2.57-4.85c.28,0,.57-.58.86-1.72,0-.29.28-.86.57-.86-.86-8,1.42-10.27,6.85-7.14a1,1,0,0,0,.85.29c2.29-.85,4.86-3.42,7.71-7.42h.57c4.57,3.71,8.28,6.85,10.57,9.7,0,.29.57,0,1.14-.28,1.42-3.71,4-4.85,7.7-2.85h.86a15.12,15.12,0,0,0,3.43,4,1.07,1.07,0,0,1,.28.86,19.16,19.16,0,0,1,12.28,4.85v.58c.86,3.13,1.43,6,2,8.84V295a16.19,16.19,0,0,1,5.14,3.41.61.61,0,0,0,.57.57,39.91,39.91,0,0,0,2.28,5.15c0,.28.28.28.57.28.57,8.28,1.14,16.55,2,24.84,0,3.71.57,7.71.85,11.42v1.14A31.31,31.31,0,0,1,711.2,354.65Z"
        transform="translate(-181 -226.47)" />
    <path class="cls-1"
        d="M570.18,401.47c3.14-1.71,3.71-5.42,2.85-11.42v-18a1.07,1.07,0,0,1-.86-.28c-4.28-3.42-4.85-8.28-1.14-15.13a.88.88,0,0,0-.28-.57c-4.86-4.86-10.85-8.56-17.7-11.7a1,1,0,0,1-.29.85c-2.28,6.29-6.85,10.28-13.13,12.56a1.36,1.36,0,0,0-.85.29c-3.73.57-6.29-.29-7.72-2a11.8,11.8,0,0,0-.57-4.56c-2.57-7.14-2.57-14.56-.57-22.27a2.14,2.14,0,0,1,.29-1.15v-.56c-1.72-11.43-3.72-23.41-5.71-36.26a8.19,8.19,0,0,1-4-2.57c-3.14-4.58-6.28-6-9.42-4h-.57a73,73,0,0,1-8,24.55h-.58A59.66,59.66,0,0,1,484.53,317c-.29,0-.86,0-.86-.28a17.62,17.62,0,0,1-12.56-12.28,4.47,4.47,0,0,1,1.71-2.28c.86-.57,1.15-1.15.86-1.71a154.71,154.71,0,0,1-5.42-15.13c5.71-2,8.28-5.72,8.28-10.28H476c-4.57-5.72-3.15-8.28,4-7.72a3.63,3.63,0,0,1,2.57,1.15c4-.86,6-3.71,6.28-8.57h.58a40.55,40.55,0,0,1,10.84,12.28l.29-.86q-1.29-7.28,8.56-8.56c4-.57,8.28-1.14,12.56-1.43.57,0,1.14.29,1.72.29,0,5.7,3.13,7.13,10,4.57a5.14,5.14,0,0,1,3.71-.58,21,21,0,0,1,8.56,5.42c.29.29.29.29.86.29,2,8.86,4,18,6.57,26.55V299c3.7,2.58,7.7,5.43,11.7,8.28,0,.29.28.29.57.29,1.43-6,2.57-11.7,3.71-17.41a1,1,0,0,0,.29-.86c-4-7.42-3.43-13.42,1.14-17.7.29-.29.29-.29.57-.29v-12c-3.71-1.42-5.71-4-6.56-8a1.08,1.08,0,0,1,.28-.86c3.42-2.56,5.14-5.13,5.43-7.71h-.86c-6.28,2-12.85,1.72-20-.85h-.86c-3.72,4-8.28,5.14-14.56,3.71,0,.29,0,.29-.29.57-2.57,2.57-4.56,2.57-6.28.29a1.06,1.06,0,0,1-.86-.29c-4.56-3.43-9.7-3.14-15.41.29V247c-4.56.86-8.56.57-11.42-.57h-2.85a11.53,11.53,0,0,1-7.42-.86h-1.15c-5.42.29-9.71,1.71-12.27,4.85a1,1,0,0,1-.86-.29c-4.28-1.13-6.28-3.7-6.85-8.27v-.57a56.55,56.55,0,0,1-10.28,10c-.29,0-.57-.28-.86-.28-3.42-4.57-6-4.86-7.7-.58.57,4.57-.29,7.14-3.15,7.71-1.13,0-1.71,0-1.71-.57-.85-5.71-3.42-9.13-7.42-10.28-.57,7.71.57,13.42,3.42,17.42a1,1,0,0,1,.29.85A30.78,30.78,0,0,0,456,266.73a1.06,1.06,0,0,1,.86-.29c3.14,3.71,4.85,7.71,4.85,11.42V279c-2.57,5.13-2.28,12.28.57,20.84a1.06,1.06,0,0,1,.29.86c-3.43,3.71-4,9.42-1.43,17.12h-.28c-3.72,4-4.28,7.71-2.29,11.43a14,14,0,0,0,2.86,3.13c.28.29.28.29.28.58a111.27,111.27,0,0,0-2.57,13.42h.57c1.15,1.42,1.43,3.71,1.15,6.56v1.14a10.82,10.82,0,0,0,.85,5.14,32.2,32.2,0,0,1,3.43,11.13c1.14,7.43-1.72,10.85-9.14,10.28,0,2,.58,3.14,2,3.71a1,1,0,0,0,.86.29c.85,1.71,1.14,4,.28,7.14,0,.28,0,.28-.28.28H458a51.37,51.37,0,0,1-16.28,0,1,1,0,0,0-.85.29,17.32,17.32,0,0,0-5.71,5.42c.85,2.86,2,5.71,2.57,8.57v.85a20,20,0,0,0,14.56,1.14h.86a12.48,12.48,0,0,0,6.56,8v-.57c1.15-4,4.29-6,9.43-6.57,6.56-.57,10.84,1.14,12.55,4.57,4-2.57,8-3.71,12.28-3.14.29,0,.29.29.29.57,3.71,6.56,7.13,6.28,9.7-.86,0-.28.29-.28.57-.28,5.14,4,10.28,4.85,14.28,2.28a1.07,1.07,0,0,1,.86-.28,45,45,0,0,1,7.7,5.13v-.28c7.7-4.28,16-4.57,24.27-1.72,3.71,1.43,6,.58,7.14-2,5.13-2,9.7-1.42,13.41,1.44a1.07,1.07,0,0,0,.86.28,26.79,26.79,0,0,1-2.85-12.28Zm-66.24-15.7a5.42,5.42,0,0,1-2.28.57c-6.28-2.57-10.85-.29-13.7,6.57h-.57c-6.85-2-11.14-6.57-13.42-13.42v-.86c5.71-4.56,6-9.7.85-15.7a2.82,2.82,0,0,1-.85-2.28c1.14-6.57,2.57-13.71,4-20.84,0-1.43.86-1.43,2,0,.29,4.57,2.28,6.28,5.71,4.85,0-.28.57-.28.57-.28a50.31,50.31,0,0,0,7.14-6.29c0-.28.29-.28.86-.28q16.26,6,15.41,24.84h-.57a30,30,0,0,0,4.57,11.42,1,1,0,0,1,.28.85A51.87,51.87,0,0,1,503.94,385.77Z"
        transform="translate(-181 -226.47)" />
    <path class="cls-1"
        d="M412.87,349.52c-.28-.29-.28-.29-.57-.29a46.9,46.9,0,0,0-1.71-15.13,1.74,1.74,0,0,1-.28-1.14,40.12,40.12,0,0,1-10.85-8.28,34.32,34.32,0,0,1-6-8,1.08,1.08,0,0,1-.28-.86,22.69,22.69,0,0,1,7.42-9.71c.29,0,.29-.28.29-.57a22.52,22.52,0,0,1,4.85-14,15.08,15.08,0,0,0,2.86-5.14c-3.15-6.85-4.86-15.13-4.86-24.83v-.86a36.76,36.76,0,0,1-5.42-10.57,1,1,0,0,1-.29-.85c-1.71-.85-3.71-2-5.71-2.85h-1.14c-4.57-4.57-8-10.85-10.28-18a1.39,1.39,0,0,1-.29-.86q-4.28-2.13-6.85,2.57c0,.29-.28.29-.57.29a.28.28,0,0,1-.28.29,13.15,13.15,0,0,1-8.28-.29h-.86a65.15,65.15,0,0,1-19.13-4c-.28,0-.28,0-.57.29-4.28,5.71-9.42,6.56-15.7,2.57a1.41,1.41,0,0,0-.85.28c-2.86.29-5.14,0-6.57-1.14a1.07,1.07,0,0,1-.86-.28c-3.43-2-6.28-2-8.57.28h-.85c0,.57-.57.86-.57,1.14q-9.42,4.29-21.41,1.72c-.57,0-.57,0-.57-.29-4.57-6-8.85-5.43-12.85,2v.57c-4.56.29-9.42.57-14.27.57a4.07,4.07,0,0,0-2.85,1.72,120.37,120.37,0,0,0-10.57,13.41c3.43,3.71,8,5.14,14.56,4.57a3.42,3.42,0,0,1,1.43-.29,12,12,0,0,0,6-3.14c2.28-2.56,4.29-2.56,6,.58.29.28.29.28.58.28a197.74,197.74,0,0,1,5.71,28.84c.29.85-.29,2-1.14,3.13a4.11,4.11,0,0,0-.57,2v10.56c.28,0,.28,0,.57.28,5.14,6.85,4,13.13-3.71,18.84,0,.29,0,.57.28.57a17.42,17.42,0,0,1,7.71,8c0,.28,0,.85-.29.85v.29A17.69,17.69,0,0,0,283,337.81v.85c5.14,5.14,4.56,10.29-1.14,15.42,0,0,0,.57.29.57a97.4,97.4,0,0,0,9.13,9.71v.86c-1.14,4.57-3.72,8-7.42,9.7h-.57c.57,3.43,2.28,5.71,5.42,6.57v1.14c-1.15,9.14-6.56,14.56-15.42,16.28v.28a79.12,79.12,0,0,0-9.42,1.43H263a16.54,16.54,0,0,0-6.57,8.56c.58,6,5.14,8.56,13.13,7.71h1.15a35.81,35.81,0,0,1,8.56,5.14c.28.28.28.57.86.57a115.4,115.4,0,0,1,8.56-8.28c.28-.29.57-.57.86-.57q9,2.13,14.55-2.57h.58a10.51,10.51,0,0,1,7.42,8.28,2.13,2.13,0,0,1,.29,1.14c3.13-2,7.42-2.86,12.27-2.86h1.14c2.57-4,7.14-6,13.13-6.56h.86c1.14,4.28,3.42,7.42,6.57,9.14,0,.28,0-.29.29-1.72,2.56-5.43,7.42-6.85,14-3.43a.9.9,0,0,1,.29.58,143.63,143.63,0,0,1,16-.86H378c2-7.14,7.14-11.42,15.14-12.28h1.14c1.14-3.14,3.71-5.13,7.42-5.71h1.14c3.72-6.28,7.14-12.56,10.28-19.12v-.86c-3.14-6-2-10.84,3.71-14.56a1,1,0,0,0,.29-.85C416.3,356.65,415.16,352.94,412.87,349.52Zm-113-99.07c8.27,2,15.69,3.14,22.25,2.57a5.22,5.22,0,0,1,5.44,3.14c3.42,1.72,6.56.58,9.13-4,0-.58.57-.58,1.43,0,2.85,5.42,7.42,6.28,13.41,3.13,0-.28.58-.28.87-.28q5.55,6.85,17.12,7.71h.86c5.14.57,7.13,4.56,6,11.42a1.06,1.06,0,0,0-.28.86,30.06,30.06,0,0,1,2.85,9.7v.58a59.61,59.61,0,0,1-18,19.69c-1.15.86-2.57,1.71-4,2.57-1.71.86-4,1.14-7.42.86h-1.15c-5.7-3.72-11.13-6.28-16.26-7.43,0-.28-.57-.28-.57-.28a17.6,17.6,0,0,1-7.71,7.42,1.41,1.41,0,0,1-.86.29,75.74,75.74,0,0,0-17.13-14.56.89.89,0,0,1-.29-.57c3.14-6.29,3.14-11.14,0-15.14a1,1,0,0,0-.85-.28,39.62,39.62,0,0,1,0-14.28v-.85c-2.86-2.57-4.28-6.57-4.57-11.42A1.43,1.43,0,0,1,299.83,250.45Zm91.35,111.06q-2.15,11.55-8.57,18.84a1,1,0,0,1-.85.28c-5.14-2.57-6.57-.86-4,5.71a1.45,1.45,0,0,1,.28.86c-4.56,7.43-12.84,11.13-24.83,10.84v-.28c-5.43-5.42-9.71-4.28-12.56,2.58a1.08,1.08,0,0,1-.86.28c-2.86,2.56-5.71,2-8.85-1.71h-1.43c-5.13.56-8.28,0-10.56-2a1,1,0,0,1-.85-.28,101.34,101.34,0,0,1-13.42-11.42h-.28a73.74,73.74,0,0,0-.58-28.55c3.42-2.85,5.42-7.7,5.71-14.27v-.57a19.05,19.05,0,0,0,6.57-11.71v-.85a77,77,0,0,0,26.26-2.57c.29-.29.85-.57,1.43-1.15h22c5.7,5.72,11.42,11.14,17.12,16.85h.86c2.29,6.28,4.87,12.27,7.43,18.27Z"
        transform="translate(-181 -226.47)" />
    <path class="cls-1"
        d="M488,623.45c3.15-1.72,3.72-5.44,2.86-11.46V593.93a1.07,1.07,0,0,1-.86-.28c-4.3-3.44-4.87-8.31-1.15-15.19a.88.88,0,0,0-.28-.57c-4.87-4.88-10.89-8.6-17.77-11.75a1.07,1.07,0,0,1-.28.86c-2.29,6.31-6.88,10.32-13.18,12.6a1.36,1.36,0,0,0-.86.3c-3.73.57-6.31-.3-7.74-2a11.9,11.9,0,0,0-.57-4.58c-2.58-7.17-2.58-14.62-.58-22.36a2.13,2.13,0,0,1,.29-1.14v-.57c-1.72-11.47-3.72-23.5-5.73-36.39a8.24,8.24,0,0,1-4-2.58c-3.15-4.59-6.3-6-9.46-4h-.57a73.12,73.12,0,0,1-8,24.65h-.57a60.06,60.06,0,0,1-17.47,7.73c-.29,0-.86,0-.86-.28A17.67,17.67,0,0,1,388.59,526a4.51,4.51,0,0,1,1.71-2.28c.87-.57,1.15-1.15.87-1.72a157.6,157.6,0,0,1-5.45-15.19c5.73-2,8.31-5.73,8.31-10.32h-.57c-4.58-5.73-3.16-8.3,4-7.74a3.6,3.6,0,0,1,2.58,1.16c4-.87,6-3.73,6.3-8.61h.58a40.78,40.78,0,0,1,10.89,12.33l.28-.86q-1.29-7.32,8.6-8.6c4-.57,8.31-1.14,12.61-1.43.57,0,1.14.29,1.72.29,0,5.72,3.15,7.16,10,4.58a5.21,5.21,0,0,1,3.73-.57,21.07,21.07,0,0,1,8.59,5.44c.29.29.29.29.87.29,2,8.88,4,18,6.58,26.65v1.14c3.73,2.59,7.74,5.44,11.75,8.31,0,.29.29.29.58.29,1.43-6,2.57-11.75,3.72-17.48a1,1,0,0,0,.29-.86c-4-7.45-3.44-13.47,1.14-17.77.29-.28.29-.28.57-.28v-12c-3.72-1.43-5.72-4-6.59-8a1,1,0,0,1,.29-.86c3.44-2.58,5.16-5.15,5.45-7.74h-.86c-6.31,2-12.9,1.72-20.07-.85h-.85c-3.73,4-8.31,5.16-14.61,3.72,0,.29,0,.29-.29.57-2.58,2.58-4.58,2.58-6.31.29a1,1,0,0,1-.85-.29c-4.59-3.44-9.75-3.15-15.48.29v.58c-4.58.85-8.6.57-11.46-.58h-2.86a11.55,11.55,0,0,1-7.45-.86h-1.15c-5.44.29-9.74,1.71-12.32,4.87a1,1,0,0,1-.86-.29c-4.3-1.14-6.31-3.72-6.88-8.3v-.58a57.26,57.26,0,0,1-10.31,10c-.29,0-.57-.29-.87-.29-3.43-4.58-6-4.87-7.73-.57.57,4.58-.29,7.16-3.15,7.73-1.15,0-1.72,0-1.72-.57-.86-5.73-3.44-9.17-7.45-10.32-.58,7.74.57,13.48,3.44,17.49a1,1,0,0,1,.29.86,31,31,0,0,0,15.18,1.15,1,1,0,0,1,.86-.3c3.15,3.73,4.87,7.74,4.87,11.47v1.14c-2.58,5.16-2.29,12.33.58,20.92a1.08,1.08,0,0,1,.28.86c-3.44,3.72-4,9.46-1.43,17.19h-.28c-3.74,4-4.3,7.74-2.3,11.46a13.65,13.65,0,0,0,2.86,3.15c.29.29.29.29.29.58a112.48,112.48,0,0,0-2.58,13.47h.57c1.16,1.43,1.44,3.72,1.16,6.59v1.14a10.9,10.9,0,0,0,.85,5.16,31.94,31.94,0,0,1,3.44,11.17c1.15,7.46-1.72,10.9-9.17,10.32,0,2,.58,3.16,2,3.73a1.06,1.06,0,0,0,.86.28c.85,1.72,1.14,4,.28,7.17,0,.28,0,.28-.28.28h-.86a51.75,51.75,0,0,1-16.34,0,1,1,0,0,0-.85.29,17.25,17.25,0,0,0-5.73,5.44c.85,2.87,2,5.74,2.57,8.6v.86a20.1,20.1,0,0,0,14.61,1.15h.86a12.55,12.55,0,0,0,6.59,8v-.57c1.16-4,4.3-6,9.47-6.6,6.58-.57,10.88,1.15,12.6,4.59,4-2.58,8-3.72,12.32-3.15.29,0,.29.29.29.57,3.72,6.59,7.16,6.31,9.74-.86,0-.28.29-.28.57-.28,5.17,4,10.32,4.87,14.33,2.29a1.06,1.06,0,0,1,.86-.29,44.56,44.56,0,0,1,7.73,5.16v-.28c7.74-4.3,16.05-4.59,24.36-1.73,3.72,1.44,6,.58,7.17-2,5.16-2,9.74-1.43,13.46,1.44a1,1,0,0,0,.86.29A27,27,0,0,1,488,624.59Zm-66.48-15.76a5.55,5.55,0,0,1-2.29.57c-6.31-2.57-10.89-.29-13.76,6.59h-.57c-6.88-2-11.17-6.59-13.47-13.46v-.87c5.73-4.57,6-9.74.86-15.75a2.87,2.87,0,0,1-.86-2.3c1.15-6.59,2.58-13.75,4-20.91,0-1.43.86-1.43,2,0,.29,4.58,2.29,6.3,5.73,4.87,0-.29.57-.29.57-.29a51.26,51.26,0,0,0,7.17-6.31c0-.28.28-.28.86-.28q16.32,6,15.48,24.93h-.58A29.89,29.89,0,0,0,431.28,596a1,1,0,0,1,.29.85A52,52,0,0,1,421.54,607.69Z"
        transform="translate(-181 -226.47)" />
    <path class="cls-1"
        d="M314.27,544.65a65.52,65.52,0,0,1-5.16-7.16,1.06,1.06,0,0,1-.29-.86c2.59-7.45,3.73-12.89,3.16-17.19a1.45,1.45,0,0,1-.28-.86c-4.31-3.44-3.73-7.17,1.71-10.89.29,0,.29-.29.29-.86.28-5.16-1.43-8.6-4.59-10.61-.29-.28-.29-.28-.29-.57A26.91,26.91,0,0,0,310,477.31v-.86c2.58-2.58,6-1.71,10.6,2.58a.9.9,0,0,0,.58.29c4.59-.29,5.73-3.44,3.15-9.46v-1.15a44.82,44.82,0,0,1,9.17-6.87c.28-.29.28-.29.28-.57a66.08,66.08,0,0,0-8.88-15.19.87.87,0,0,0-.57-.29,17.09,17.09,0,0,0-9.46,6,1.08,1.08,0,0,0-.28.86c-4.87.29-8.6-.28-11.47-1.72a1.45,1.45,0,0,0-1.71,0c-3.16.29-5.45,0-6.88-1.14H283.9a23.91,23.91,0,0,0-14.33,11.46c1.15,9.17,6,11.74,14.61,6.87a1.09,1.09,0,0,1,.87-.28,36.23,36.23,0,0,1,7.44,17.19v1.15c-2.87,5.15-2.87,9.45,0,12.32v.86c1.43,3.44.58,6-2.58,8V508c.86,8.31-1.14,13.76-6,16,0,.29-.57.29-.86.29-4.3-3.44-7.74-3.44-10.61-.29a1,1,0,0,1-.85.29v.57c-3.15,1.72-5.45,1.72-7.74-.57v-.86c-1.43-2.3-3.15-3.15-5.44-2.3,0,.58,0,.87-.29.87-3.44,2.57-7.45,3.15-12.32,1.15H239.2c-2.58,0-4.59-.87-5.74-2.59-.28,0-.56,0-.56-.28-.29-2.59-1.44-3.16-3.16-1.72v2c.29,6-2.29,7.74-7.73,5.44-.29,0-.58,0-.58-.28-4.29-6-4.87-14-2.29-23.5h-.57c-1.15-10.31-2-20.35-2.3-30.37a1.08,1.08,0,0,0,.87-.29c2.57-2,5.73-2.29,9.74-.86-.57,1.44-.29,2.29.28,2.87l.58.57c2.57-2.58,5.44-5.15,8.59-8.31.29,0,.86,0,.86.28,4.59,1.16,7.46.59,8.6-1.14,0-.29,0-.29-.3-.57a95.79,95.79,0,0,1-15.75-14.61h-1.15c-4.29,1.14-8.31,2.29-12.32,3.72a1.07,1.07,0,0,1-.28.86,9.34,9.34,0,0,1-9.46,1.15.28.28,0,0,1-.28-.29,22.48,22.48,0,0,0-7.16-7.45,1,1,0,0,0-.86.28c-2.59,2.29-5.17,4.31-7.75,6.31v3.15h.58c.57,3.44-1.15,4.59-5.16,3.73h-1.15a4.81,4.81,0,0,0-3.72.86c-.29,10.31,1.43,12.32,5.73,6a12.49,12.49,0,0,1,3.15-3.44,2.11,2.11,0,0,1,1.72-.57c6.6,6,11.47,13.75,14.9,22.93v.85c-1.72,3.73-3.43,7.74-5.16,11.47-.28.28-.28.57-.28,1.14,5.44,8.32,7.45,18.92,5.44,31.24-.28,2-1.43,2.86-3.73,3.15-.85,3.44-1.13,6.59,0,9.74a15.74,15.74,0,0,0,1.72,4.59c.29,0,.29.57.29.57a26.16,26.16,0,0,0,.87,17.48,1.06,1.06,0,0,1,.28.86,102.18,102.18,0,0,0-6.59,10.31h.86c4,6.31,4.29,11.75,0,16.62V596c2.57,5.44,2.87,10,1.14,14.32-.28,0-.28.57-.28.86-3.73,3.44-8,3.72-12.61,1.14,0-.28-.57-.28-.86-.28a41.52,41.52,0,0,0-2.87,10.6v9.46c2.58,2.86,6.88,3.14,12.9,1.43a12.66,12.66,0,0,1,3.44-.29c16.62,2,30.66.57,41.83-4.87-.85-6.88-3.72-12-8.31-15.47V612c-8-1.72-13.47-5.73-16.34-12.32v-.86c0-8,2.59-13.18,7.17-16.62a5.41,5.41,0,0,1,2.3-.58c5.44-2.29,4.29-3.72-3.73-3.72h-1.14c-3.16-5.73-4.6-13.18-4.6-22.06v-1.15a11.41,11.41,0,0,1,9.47-8.31,1,1,0,0,1,.85-.29c2.87,4,3.44,8,2,11.75,0,.29.29.58.86.86a14.12,14.12,0,0,1,6.87-9.45h.87a102.12,102.12,0,0,0,22.92,0,115.09,115.09,0,0,1,25.79-1.15,125.65,125.65,0,0,1,6.59,15.48v.56c-3.44,5.74-4.3,11.18-2.29,16.34h.28c-.57,5.16-.57,9.74-.86,14.32-.28,1.16.29,2.59.86,4,.86,3.44.29,5.73-1.72,6.3a1.39,1.39,0,0,1-.86.29,47.75,47.75,0,0,0-14.61,9.45h-.86a31.58,31.58,0,0,0-2,16.33,1.07,1.07,0,0,1,.29.87c6.88,1.14,13.19,2.58,18.91,5.15a.9.9,0,0,1,.29.58c-.86,6.59.29,7.16,3.44,2a1.41,1.41,0,0,0,.28-.85c6-2,11.75-4.3,16.34-7.75h.57c6,.87,9.74,3.45,12.32,7.75.29,0,.29.57.29.85a36,36,0,0,1,9.46-9.17,1.41,1.41,0,0,1,.85-.28c-.85-6-1.43-11.47-.85-16.34v-1.14a23.33,23.33,0,0,0-6.88-7.16c-.29-.29-.29-.29-.86-.29-1.14-8-2.58-14-4.59-18.34v-.86a7.67,7.67,0,0,1-6-4.3c-.29-.86.86-.86,3.14-.29.86-3.44-1.13-5.44-6.29-6.3-1.72-.29-1.72-1.15-.58-2.3,3.15-2.86,5.16-5.44,6.59-6.87a1.07,1.07,0,0,0,.28-.86c-6-4.87-7.72-11.46-4.86-19.2v-.86c0-.29,0-.57-.29-.57Z"
        transform="translate(-181 -226.47)" />
    <path class="cls-1"
        d="M657.54,619.72a1.43,1.43,0,0,1-.28-.86c-3.15-1.14-4.87-4.29-4.3-9.74h-.29c-8-4.87-13.75-12.32-17.47-21.77h-.58a29,29,0,0,1,.58-8.89c.28,0,.28-.57.28-.57-4.3-6.3-6.87-13.76-8.59-22.06v-9.75A298.66,298.66,0,0,0,614.28,510a1,1,0,0,1,.29-.86c3.73-3.44,4.29-7.45,1.72-11.75a10.54,10.54,0,0,1-3.16-.57,6.34,6.34,0,0,1-2-1.72,94.52,94.52,0,0,1-4.87-18.63c-.86-6-2.58-10.88-5.16-14.32h-2.58c-3.73-6-8.6-8.6-14.62-8.6v.86a23,23,0,0,0-.86,16.33c0,.29-.28.58-.56.86a52.93,52.93,0,0,1-6.31,4.87,1,1,0,0,1-.29.86,13.64,13.64,0,0,1-6.3,8.89v.86c1.43,11.17-.57,21.2-6.59,30.37v3.15c.28,2.87,0,5.16-1.15,6.59V528a125.13,125.13,0,0,0-4.58,23.79c-.29,0-.86,0-.86.28-2.87,1.43-4.59,3.73-5.16,7.45,0,.28,0,.86.29.86,1.15,5.45-.86,10-4.87,13.47v.86c1.71,7.73.85,12.89-2.87,16.33h-.57c-1.72,6.88-4.3,12.61-8,17.19-.29,0-.58,0-.58.29-2.29,3.15-6,4.87-12,4.3v17.48q2.58-4.74,8.6-1.72c4.57,2,8.59,2,12.6-.29,2.87,4.59,7.16,6.59,13.47,5.73h.86c3.72,3.44,6.88,2.58,10-2.87h.57c4.88,2,6.31.58,4-3.43a1.49,1.49,0,0,0-1.15-.58c-.28-.28-.85-.57-1.14-.86.29-5.73,4.3-9.45,11.46-11.46H583c2.87,4.87,8,7.74,15.19,8.6,1.15,0,1.15.57.86,2-.28,7.73,2.29,10.31,7.45,7.16.29,0,.29,0,.29-.57a221.26,221.26,0,0,0,25.79,5.44,2.09,2.09,0,0,0,2-1.72,28.47,28.47,0,0,1,10.9,2.58c.85.29,1.42,0,2.28-.57.29,0,.58-.58,1.15-.86a13.4,13.4,0,0,1,7.45,1.43v-.57C658.41,630.61,658.7,624.31,657.54,619.72Zm-88-20.05h-.87c-5.44.28-9.73-.58-12.88-2.29-.29,0-.58-.58-1.15-1.43-.86-1.16-.86-3.16-.29-5.74,7.73-3.43,13.75-2.29,17.77,4,.28,0,.28.57.28.57C574.17,597.38,573.3,599.09,569.58,599.67Zm22.92-45.85c-4.87,2.29-8.88.57-12.32-4.87a1,1,0,0,1-.29-.86c4-2.29,5.16-7.45,4-14.62-.28-.57.58-1.14,2-1.71,0-.29.57-.58.86-.86-2.29-7.45.29-9.75,7.45-7.16v.57c-2,5.44-.86,9.45,3.73,11.75.28.28.28.28.28.57A25.29,25.29,0,0,0,592.5,553Zm6.59,2a1.06,1.06,0,0,1-.86-.29c-1.14-.57-1.43-1.72-.86-3.72,1.15-.87,2.87-1.15,5.45-.58v.58h.57C603.39,556.11,602,557.26,599.09,555.83Z"
        transform="translate(-181 -226.47)" />
    <path class="cls-1"
        d="M809.22,530.32V530c-2.57-2-3.43-5.45-2.86-10.6v-.86a109,109,0,0,0-9.74-18.06h-.86c-3.15-11.75-9.17-20.92-18-26.65a1.09,1.09,0,0,0-.87-.28,20.37,20.37,0,0,1-9.45,2.86h-1.15c-1.43-5.73-4-9.73-8.59-12.32h-.87c-.28,8-3.14,9.74-8.3,5.44-.29-.28-.29-.28-.29-.86-6,3.73-10.32,3.16-13.47-2v-.87c-4.58,0-7.73,1.44-8.87,4.59,0,.28-.3.28-.87.28v.86c-1.72,1.72-3.44,1.43-4.58-.86a1.06,1.06,0,0,0-.29-.86c-.86-.85-2.29-1.15-4.59-1.15a1,1,0,0,0-.85.3c-2.87.28-5.16,0-6.6-1.15h-1.14a32.47,32.47,0,0,0-15.19,2h-.57a17.29,17.29,0,0,1-8,4.59h-.87a68.13,68.13,0,0,0-17.18-3.73,6.11,6.11,0,0,0,3.72,4.58,1.38,1.38,0,0,0,.86.3A55.89,55.89,0,0,0,674,485.91c.3.29.3.29.58.29-1.43,6.3-.28,10.31,3.15,12,0,.29.58.29.58.29,2.86-5.73,7.16-6.88,13.46-3.44l2,.57a9.75,9.75,0,0,1,6.59,7.45v1.15a54.32,54.32,0,0,0,.86,22.35,8.53,8.53,0,0,1-.29,6.59l.29.57c4.3,3.15,5.16,8.31,3.15,15.48v8.59a19.46,19.46,0,0,1,0,11.46v.86c3.15,4.59,3.43,8.89,0,13.46v.87c-.86,3.72.28,6,2.58,7.17v.56c1.14,2,1.14,4.59.57,8.31h-.57v1.15a31.86,31.86,0,0,1-4.59,17.19H701.2c-6-.28-10.32.86-13.18,3.73h-1.15a13.35,13.35,0,0,0-9.45,0c.86,7.16,5.73,11.46,14.32,12,1.43.28,2.29,1.14,2.87,3.15,2,0,4-2,6-5.45.29-.28.29-.28.58-.28,4.3,3.72,7.46,5.73,9.45,4.87h1.15c2.87-4.59,7.45-6.31,13.47-5.16a7.1,7.1,0,0,0,2.86.29c3.73,2.86,10,4,18,3.44a12.16,12.16,0,0,1,2.87.28h4a151.32,151.32,0,0,0,17.77-5.16c1.15,0,2-.86,3.15-1.43,3.73,0,5.73,2,6,5.73,0,.28.28.28.57.28,3.15-9.16,8.31-15.18,16.34-18.9a1,1,0,0,1,.85-.28,123.76,123.76,0,0,0,5.45-15.49,1,1,0,0,0,.28-.85,10.43,10.43,0,0,0,4.59-4,1.09,1.09,0,0,0,.28-.87c-.28-7.73,1.72-13.18,6.31-16.33a.89.89,0,0,0,.29-.57c.57-4,1.14-8.6,2-14.32,1.15-5.45,0-9.75-2.58-12.62-.86-.57-1.43-1.14-2.29-1.71-.58-5.16,1.43-9.17,6.59-12v-.57C820.11,531.76,816.68,529.75,809.22,530.32Zm-19.77,46.14c0,.29,0,.29-.28.29a1,1,0,0,1-.29.85,17.17,17.17,0,0,0-.57,6.88h-.86c-.86,3.44-3.73,5.15-8.89,4.58a1,1,0,0,0-.85.29,25,25,0,0,0-5.73,8.31v.57a54.7,54.7,0,0,1-5.74,1.44,1,1,0,0,1-.28.85,57.31,57.31,0,0,0-5.44,6,.9.9,0,0,1-.29.58c-2.58,1.71-4.59,1.43-6.59-.58h-.58a178,178,0,0,0-19.2,11.18,1,1,0,0,1-.85-.28,56.42,56.42,0,0,0-13.47-8.32v1.15a.28.28,0,0,1-.29.29c-2.87.57-4.3-.58-4.58-3.44v-.58c-2.58-6.59-.29-10.31,6.59-10.59h.57c-.57-4.3-2.86-8.32-7.16-12.61v-.87c.28-6.87,2.29-12.32,5.73-16.33v-.86A124,124,0,0,1,719.25,551a86.8,86.8,0,0,1,.29-12.32c-.29,0-.86,0-.86-.28-5.74-.86-8-5.45-6.88-13.18,5.45-1.43,8-5.73,7.45-13.47a4.62,4.62,0,0,1,2.58-4.87c.28,0,.57-.58.86-1.72,0-.29.29-.86.57-.86-.86-8,1.43-10.32,6.88-7.17a1,1,0,0,0,.86.29c2.29-.86,4.87-3.44,7.73-7.44h.57c4.59,3.72,8.32,6.87,10.61,9.73,0,.29.57,0,1.15-.28,1.43-3.73,4-4.87,7.73-2.87h.86a15.27,15.27,0,0,0,3.44,4,1.08,1.08,0,0,1,.28.86,19.24,19.24,0,0,1,12.33,4.87v.58c.86,3.15,1.43,6,2,8.88v.87a16.12,16.12,0,0,1,5.15,3.43.61.61,0,0,0,.57.57,41.64,41.64,0,0,0,2.3,5.16c0,.28.28.28.57.28.57,8.32,1.15,16.62,2,24.93,0,3.73.57,7.74.86,11.47v1.15A31.56,31.56,0,0,1,789.45,576.46Z"
        transform="translate(-181 -226.47)" />
    <path class="cls-1"
        d="M626.39,728.17v-2.59h1.72c.88,0,1.82.19,1.82,1.23,0,1.28-.94,1.36-2,1.36Zm0,1.07h1.46l2.19,3.63h1.42l-2.37-3.69a2.17,2.17,0,0,0,2.17-2.29c0-1.66-1-2.39-3-2.39h-3.18v8.37h1.27v-3.63Zm1.52,6.69a7.24,7.24,0,1,0-7.34-7.26,7.22,7.22,0,0,0,7.34,7.26ZM622,728.67a5.88,5.88,0,1,1,5.89,6.06,5.85,5.85,0,0,1-5.89-6.06ZM413.13,755.19c0,11,0,14.21,12.08,14.21v2.29h-36.1V769.4c12.11,0,12.11-3.25,12.11-14.21V691H388.49c-10.68,0-13.91,6.53-14.55,14.61h-2.3l.9-20.1H441.8l.88,20.1h-2.27c-.65-8.08-3.86-14.61-14.54-14.61H413.13v64.17Zm60.33,0c0,10.95,0,14.2,12,14.2v2.29h-36V769.4c12,0,12-3.25,12-14.2V702c0-11,0-14.2-12-14.2v-2.28h36v2.28c-12,0-12,3.25-12,14.2V755.2Zm96.48,10.85a59.66,59.66,0,0,1-29.24,7.48c-37.51,0-47.28-28.17-47.28-43.54,0-20,14.53-46.3,44.84-46.3A44.77,44.77,0,0,1,554,686.51c1.92.63,6.26,2.57,7.93,2.57,2.8,0,3.07-3.22,3.18-5.39h2.31l2.18,27.11h-2.33C563.09,696.5,554.13,688,539.15,688c-21.57,0-31.34,19.65-31.34,39.09,0,24.87,13.62,42,33,42,5.4,0,12.22-1.41,17.22-4.67V741.18C558,730.26,558,727,546,727v-2.3h33.6V727c-8.2,0-9.61,3-9.61,12.09v26.95Zm38.55-10.85c0,10.95,0,14.2,12,14.2v2.29h-36V769.4c12,0,12-3.25,12-14.2V702c0-11,0-14.2-12-14.2v-2.28h36v2.28c-12,0-12,3.25-12,14.2V755.2Z"
        transform="translate(-181 -226.47)" />
</svg>